<svg width="241" height="30" viewBox="0 0 241 30" fill="none" xmlns="http://www.w3.org/2000/svg">
<path d="M209 1V29" stroke="black" stroke-width="0.5"/>
<rect x="0.25" y="0.25" width="240.5" height="29.5" stroke="black" stroke-width="0.5"/>
<path d="M225 21L231.062 12L218.938 12L225 21Z" fill="#424242"/>
<path d="M27.86 19H26.45V11.458H22.436V19H21.026V10.36H27.86V19ZM31.9273 12.784C32.3793 12.784 32.7873 12.858 33.1513 13.006C33.5193 13.154 33.8313 13.364 34.0873 13.636C34.3473 13.908 34.5473 14.238 34.6873 14.626C34.8273 15.014 34.8973 15.45 34.8973 15.934C34.8973 16.418 34.8273 16.854 34.6873 17.242C34.5473 17.63 34.3473 17.962 34.0873 18.238C33.8313 18.51 33.5193 18.72 33.1513 18.868C32.7873 19.016 32.3793 19.09 31.9273 19.09C31.4713 19.09 31.0593 19.016 30.6913 18.868C30.3273 18.72 30.0153 18.51 29.7553 18.238C29.4953 17.962 29.2953 17.63 29.1553 17.242C29.0153 16.854 28.9453 16.418 28.9453 15.934C28.9453 15.45 29.0153 15.014 29.1553 14.626C29.2953 14.238 29.4953 13.908 29.7553 13.636C30.0153 13.364 30.3273 13.154 30.6913 13.006C31.0593 12.858 31.4713 12.784 31.9273 12.784ZM31.9273 18.082C32.4793 18.082 32.8893 17.898 33.1573 17.53C33.4293 17.158 33.5653 16.628 33.5653 15.94C33.5653 15.252 33.4293 14.722 33.1573 14.35C32.8893 13.974 32.4793 13.786 31.9273 13.786C31.3673 13.786 30.9513 13.974 30.6793 14.35C30.4073 14.722 30.2713 15.252 30.2713 15.94C30.2713 16.628 30.4073 17.158 30.6793 17.53C30.9513 17.898 31.3673 18.082 31.9273 18.082ZM40.2628 14.08C40.2228 14.132 40.1848 14.172 40.1488 14.2C40.1128 14.228 40.0608 14.242 39.9928 14.242C39.9248 14.242 39.8528 14.218 39.7768 14.17C39.7048 14.122 39.6168 14.07 39.5128 14.014C39.4128 13.954 39.2908 13.9 39.1468 13.852C39.0028 13.804 38.8228 13.78 38.6068 13.78C38.3268 13.78 38.0808 13.83 37.8688 13.93C37.6608 14.03 37.4848 14.174 37.3408 14.362C37.2008 14.546 37.0948 14.772 37.0228 15.04C36.9548 15.304 36.9208 15.602 36.9208 15.934C36.9208 16.278 36.9588 16.584 37.0348 16.852C37.1108 17.12 37.2188 17.346 37.3588 17.53C37.5028 17.714 37.6748 17.854 37.8748 17.95C38.0788 18.046 38.3068 18.094 38.5588 18.094C38.8068 18.094 39.0088 18.064 39.1648 18.004C39.3208 17.944 39.4508 17.878 39.5548 17.806C39.6588 17.734 39.7468 17.668 39.8188 17.608C39.8948 17.548 39.9748 17.518 40.0588 17.518C40.1628 17.518 40.2428 17.558 40.2988 17.638L40.6648 18.112C40.5168 18.292 40.3528 18.444 40.1728 18.568C39.9928 18.692 39.8028 18.794 39.6028 18.874C39.4028 18.95 39.1948 19.004 38.9788 19.036C38.7628 19.072 38.5448 19.09 38.3248 19.09C37.9448 19.09 37.5888 19.02 37.2568 18.88C36.9288 18.736 36.6408 18.53 36.3928 18.262C36.1488 17.99 35.9548 17.66 35.8108 17.272C35.6708 16.88 35.6008 16.434 35.6008 15.934C35.6008 15.482 35.6648 15.064 35.7928 14.68C35.9208 14.292 36.1068 13.958 36.3508 13.678C36.5988 13.398 36.9048 13.18 37.2688 13.024C37.6328 12.864 38.0528 12.784 38.5288 12.784C38.9728 12.784 39.3628 12.856 39.6988 13C40.0388 13.144 40.3408 13.348 40.6048 13.612L40.2628 14.08ZM48.4624 12.862V19H47.3044V15.298C47.3044 15.17 47.3124 15.026 47.3284 14.866C47.3444 14.702 47.3644 14.55 47.3884 14.41L45.4384 17.914C45.3984 17.986 45.3464 18.044 45.2824 18.088C45.2184 18.128 45.1464 18.148 45.0664 18.148H44.9284C44.8484 18.148 44.7764 18.128 44.7124 18.088C44.6524 18.044 44.6024 17.986 44.5624 17.914L42.5764 14.392C42.6004 14.532 42.6204 14.686 42.6364 14.854C42.6564 15.018 42.6664 15.166 42.6664 15.298V19H41.5024V12.862H42.5584C42.6464 12.862 42.7324 12.882 42.8164 12.922C42.9044 12.962 42.9804 13.04 43.0444 13.156L44.7064 16C44.7624 16.104 44.8124 16.216 44.8564 16.336C44.9044 16.456 44.9504 16.576 44.9944 16.696C45.0384 16.576 45.0844 16.456 45.1324 16.336C45.1804 16.216 45.2324 16.104 45.2884 16L46.9264 13.156C46.9864 13.036 47.0604 12.958 47.1484 12.922C47.2364 12.882 47.3244 12.862 47.4124 12.862H48.4624ZM52.4914 12.784C52.9434 12.784 53.3514 12.858 53.7154 13.006C54.0834 13.154 54.3954 13.364 54.6514 13.636C54.9114 13.908 55.1114 14.238 55.2514 14.626C55.3914 15.014 55.4614 15.45 55.4614 15.934C55.4614 16.418 55.3914 16.854 55.2514 17.242C55.1114 17.63 54.9114 17.962 54.6514 18.238C54.3954 18.51 54.0834 18.72 53.7154 18.868C53.3514 19.016 52.9434 19.09 52.4914 19.09C52.0354 19.09 51.6234 19.016 51.2554 18.868C50.8914 18.72 50.5794 18.51 50.3194 18.238C50.0594 17.962 49.8594 17.63 49.7194 17.242C49.5794 16.854 49.5094 16.418 49.5094 15.934C49.5094 15.45 49.5794 15.014 49.7194 14.626C49.8594 14.238 50.0594 13.908 50.3194 13.636C50.5794 13.364 50.8914 13.154 51.2554 13.006C51.6234 12.858 52.0354 12.784 52.4914 12.784ZM52.4914 18.082C53.0434 18.082 53.4534 17.898 53.7214 17.53C53.9934 17.158 54.1294 16.628 54.1294 15.94C54.1294 15.252 53.9934 14.722 53.7214 14.35C53.4534 13.974 53.0434 13.786 52.4914 13.786C51.9314 13.786 51.5154 13.974 51.2434 14.35C50.9714 14.722 50.8354 15.252 50.8354 15.94C50.8354 16.628 50.9714 17.158 51.2434 17.53C51.5154 17.898 51.9314 18.082 52.4914 18.082ZM61.4619 13.852H59.2059V19H57.9159V13.852H55.6539V12.88H61.4619V13.852ZM63.4971 17.464C63.6771 17.696 63.8731 17.86 64.0851 17.956C64.3011 18.048 64.5391 18.094 64.7991 18.094C65.3031 18.094 65.6951 17.91 65.9751 17.542C66.2591 17.174 66.4011 16.626 66.4011 15.898C66.4011 15.522 66.3691 15.202 66.3051 14.938C66.2411 14.67 66.1491 14.452 66.0291 14.284C65.9091 14.116 65.7631 13.994 65.5911 13.918C65.4191 13.842 65.2251 13.804 65.0091 13.804C64.6811 13.804 64.3971 13.876 64.1571 14.02C63.9211 14.16 63.7011 14.362 63.4971 14.626V17.464ZM63.4311 13.768C63.6871 13.468 63.9771 13.226 64.3011 13.042C64.6291 12.858 65.0091 12.766 65.4411 12.766C65.7851 12.766 66.0971 12.836 66.3771 12.976C66.6571 13.112 66.8971 13.312 67.0971 13.576C67.2971 13.84 67.4511 14.168 67.5591 14.56C67.6711 14.948 67.7271 15.394 67.7271 15.898C67.7271 16.35 67.6651 16.772 67.5411 17.164C67.4211 17.552 67.2471 17.89 67.0191 18.178C66.7911 18.462 66.5151 18.686 66.1911 18.85C65.8671 19.01 65.5011 19.09 65.0931 19.09C64.7331 19.09 64.4271 19.032 64.1751 18.916C63.9271 18.8 63.7011 18.64 63.4971 18.436V21.034H62.2071V12.88H62.9871C63.1631 12.88 63.2751 12.962 63.3231 13.126L63.4311 13.768ZM72.7945 15.25C72.7945 15.034 72.7625 14.834 72.6985 14.65C72.6385 14.462 72.5485 14.3 72.4285 14.164C72.3085 14.024 72.1585 13.916 71.9785 13.84C71.8025 13.76 71.5985 13.72 71.3665 13.72C70.8985 13.72 70.5305 13.854 70.2625 14.122C69.9945 14.39 69.8245 14.766 69.7525 15.25H72.7945ZM69.7165 16.042C69.7325 16.39 69.7865 16.692 69.8785 16.948C69.9705 17.2 70.0925 17.41 70.2445 17.578C70.4005 17.746 70.5845 17.872 70.7965 17.956C71.0125 18.036 71.2525 18.076 71.5165 18.076C71.7685 18.076 71.9865 18.048 72.1705 17.992C72.3545 17.932 72.5145 17.868 72.6505 17.8C72.7865 17.728 72.9025 17.664 72.9985 17.608C73.0945 17.548 73.1825 17.518 73.2625 17.518C73.3665 17.518 73.4465 17.558 73.5025 17.638L73.8685 18.112C73.7165 18.292 73.5445 18.444 73.3525 18.568C73.1605 18.692 72.9565 18.794 72.7405 18.874C72.5245 18.95 72.3025 19.004 72.0745 19.036C71.8465 19.072 71.6245 19.09 71.4085 19.09C70.9845 19.09 70.5905 19.02 70.2265 18.88C69.8665 18.736 69.5525 18.526 69.2845 18.25C69.0205 17.974 68.8125 17.632 68.6605 17.224C68.5125 16.816 68.4385 16.346 68.4385 15.814C68.4385 15.39 68.5045 14.994 68.6365 14.626C68.7725 14.258 68.9645 13.938 69.2125 13.666C69.4645 13.394 69.7685 13.18 70.1245 13.024C70.4845 12.864 70.8905 12.784 71.3425 12.784C71.7185 12.784 72.0665 12.846 72.3865 12.97C72.7065 13.09 72.9825 13.268 73.2145 13.504C73.4465 13.74 73.6265 14.03 73.7545 14.374C73.8865 14.714 73.9525 15.102 73.9525 15.538C73.9525 15.738 73.9305 15.872 73.8865 15.94C73.8425 16.008 73.7625 16.042 73.6465 16.042H69.7165ZM80.0572 13.852H77.8012V19H76.5112V13.852H74.2492V12.88H80.0572V13.852ZM83.2324 18.064C83.4204 18.064 83.5844 18.04 83.7244 17.992C83.8684 17.94 83.9864 17.872 84.0784 17.788C84.1744 17.7 84.2444 17.596 84.2884 17.476C84.3364 17.356 84.3604 17.224 84.3604 17.08C84.3604 16.952 84.3384 16.832 84.2944 16.72C84.2544 16.604 84.1884 16.504 84.0964 16.42C84.0084 16.332 83.8924 16.264 83.7484 16.216C83.6044 16.164 83.4284 16.138 83.2204 16.138H82.0324V18.064H83.2324ZM83.2144 15.208C83.6384 15.208 83.9964 15.26 84.2884 15.364C84.5804 15.464 84.8164 15.6 84.9964 15.772C85.1764 15.944 85.3064 16.144 85.3864 16.372C85.4664 16.596 85.5064 16.83 85.5064 17.074C85.5064 17.358 85.4564 17.618 85.3564 17.854C85.2564 18.086 85.1084 18.288 84.9124 18.46C84.7204 18.632 84.4824 18.766 84.1984 18.862C83.9184 18.954 83.5964 19 83.2324 19H80.8024V12.88H82.0324V15.208H83.2144ZM91.9998 18.136C92.5558 18.136 92.9718 17.962 93.2478 17.614C93.5238 17.262 93.6618 16.756 93.6618 16.096C93.6618 15.444 93.5278 14.942 93.2598 14.59C92.9918 14.234 92.5858 14.056 92.0418 14.056C91.5058 14.056 91.0898 14.22 90.7938 14.548C90.5018 14.876 90.3558 15.356 90.3558 15.988C90.3558 16.676 90.4918 17.206 90.7638 17.578C91.0398 17.95 91.4518 18.136 91.9998 18.136ZM92.4258 11.626C92.0378 11.654 91.7038 11.734 91.4238 11.866C91.1478 11.998 90.9178 12.176 90.7338 12.4C90.5538 12.624 90.4158 12.892 90.3198 13.204C90.2278 13.516 90.1738 13.864 90.1578 14.248C90.3578 13.9 90.6478 13.622 91.0278 13.414C91.4078 13.206 91.8518 13.102 92.3598 13.102C92.7678 13.102 93.1338 13.174 93.4578 13.318C93.7818 13.462 94.0558 13.664 94.2798 13.924C94.5078 14.184 94.6818 14.498 94.8018 14.866C94.9258 15.234 94.9878 15.642 94.9878 16.09C94.9878 16.546 94.9158 16.96 94.7718 17.332C94.6318 17.7 94.4318 18.016 94.1718 18.28C93.9118 18.54 93.5978 18.74 93.2298 18.88C92.8618 19.02 92.4518 19.09 91.9998 19.09C91.5718 19.09 91.1758 19.02 90.8118 18.88C90.4478 18.736 90.1318 18.506 89.8638 18.19C89.5958 17.87 89.3858 17.452 89.2338 16.936C89.0858 16.42 89.0118 15.788 89.0118 15.04C89.0118 14.408 89.0698 13.824 89.1858 13.288C89.3018 12.752 89.4898 12.284 89.7498 11.884C90.0098 11.48 90.3498 11.156 90.7698 10.912C91.1938 10.664 91.7098 10.516 92.3178 10.468L94.4958 10.288L94.5678 10.96C94.5838 11.108 94.5618 11.232 94.5018 11.332C94.4458 11.432 94.3458 11.486 94.2018 11.494L92.4258 11.626ZM98.6804 12.784C99.1324 12.784 99.5404 12.858 99.9044 13.006C100.272 13.154 100.584 13.364 100.84 13.636C101.1 13.908 101.3 14.238 101.44 14.626C101.58 15.014 101.65 15.45 101.65 15.934C101.65 16.418 101.58 16.854 101.44 17.242C101.3 17.63 101.1 17.962 100.84 18.238C100.584 18.51 100.272 18.72 99.9044 18.868C99.5404 19.016 99.1324 19.09 98.6804 19.09C98.2244 19.09 97.8124 19.016 97.4444 18.868C97.0804 18.72 96.7684 18.51 96.5084 18.238C96.2484 17.962 96.0484 17.63 95.9084 17.242C95.7684 16.854 95.6984 16.418 95.6984 15.934C95.6984 15.45 95.7684 15.014 95.9084 14.626C96.0484 14.238 96.2484 13.908 96.5084 13.636C96.7684 13.364 97.0804 13.154 97.4444 13.006C97.8124 12.858 98.2244 12.784 98.6804 12.784ZM98.6804 18.082C99.2324 18.082 99.6424 17.898 99.9104 17.53C100.182 17.158 100.318 16.628 100.318 15.94C100.318 15.252 100.182 14.722 99.9104 14.35C99.6424 13.974 99.2324 13.786 98.6804 13.786C98.1204 13.786 97.7044 13.974 97.4324 14.35C97.1604 14.722 97.0244 15.252 97.0244 15.94C97.0244 16.628 97.1604 17.158 97.4324 17.53C97.7044 17.898 98.1204 18.082 98.6804 18.082ZM108.058 19H106.768V13.882H105.064C105.016 14.646 104.942 15.306 104.842 15.862C104.746 16.414 104.63 16.882 104.494 17.266C104.358 17.65 104.206 17.962 104.038 18.202C103.87 18.438 103.692 18.622 103.504 18.754C103.316 18.886 103.122 18.974 102.922 19.018C102.726 19.062 102.528 19.084 102.328 19.084C101.94 19.084 101.746 19.02 101.746 18.892V18.082H102.082C102.214 18.082 102.348 18.06 102.484 18.016C102.624 17.972 102.758 17.886 102.886 17.758C103.014 17.626 103.136 17.442 103.252 17.206C103.372 16.97 103.48 16.66 103.576 16.276C103.676 15.888 103.762 15.418 103.834 14.866C103.906 14.31 103.962 13.648 104.002 12.88H108.058V19ZM111.857 18.064C112.045 18.064 112.209 18.04 112.349 17.992C112.493 17.94 112.611 17.872 112.703 17.788C112.799 17.7 112.869 17.596 112.913 17.476C112.961 17.356 112.985 17.224 112.985 17.08C112.985 16.952 112.963 16.832 112.919 16.72C112.879 16.604 112.813 16.504 112.721 16.42C112.633 16.332 112.517 16.264 112.373 16.216C112.229 16.164 112.053 16.138 111.845 16.138H110.657V18.064H111.857ZM111.839 15.208C112.263 15.208 112.621 15.26 112.913 15.364C113.205 15.464 113.441 15.6 113.621 15.772C113.801 15.944 113.931 16.144 114.011 16.372C114.091 16.596 114.131 16.83 114.131 17.074C114.131 17.358 114.081 17.618 113.981 17.854C113.881 18.086 113.733 18.288 113.537 18.46C113.345 18.632 113.107 18.766 112.823 18.862C112.543 18.954 112.221 19 111.857 19H109.427V12.88H110.657V15.208H111.839ZM123.368 12.88V19H115.016V12.88H116.306V18.028H118.55V12.88H119.84V18.028H122.084V12.88H123.368ZM128.756 15.25C128.756 15.034 128.724 14.834 128.66 14.65C128.6 14.462 128.51 14.3 128.39 14.164C128.27 14.024 128.12 13.916 127.94 13.84C127.764 13.76 127.56 13.72 127.328 13.72C126.86 13.72 126.492 13.854 126.224 14.122C125.956 14.39 125.786 14.766 125.714 15.25H128.756ZM125.678 16.042C125.694 16.39 125.748 16.692 125.84 16.948C125.932 17.2 126.054 17.41 126.206 17.578C126.362 17.746 126.546 17.872 126.758 17.956C126.974 18.036 127.214 18.076 127.478 18.076C127.73 18.076 127.948 18.048 128.132 17.992C128.316 17.932 128.476 17.868 128.612 17.8C128.748 17.728 128.864 17.664 128.96 17.608C129.056 17.548 129.144 17.518 129.224 17.518C129.328 17.518 129.408 17.558 129.464 17.638L129.83 18.112C129.678 18.292 129.506 18.444 129.314 18.568C129.122 18.692 128.918 18.794 128.702 18.874C128.486 18.95 128.264 19.004 128.036 19.036C127.808 19.072 127.586 19.09 127.37 19.09C126.946 19.09 126.552 19.02 126.188 18.88C125.828 18.736 125.514 18.526 125.246 18.25C124.982 17.974 124.774 17.632 124.622 17.224C124.474 16.816 124.4 16.346 124.4 15.814C124.4 15.39 124.466 14.994 124.598 14.626C124.734 14.258 124.926 13.938 125.174 13.666C125.426 13.394 125.73 13.18 126.086 13.024C126.446 12.864 126.852 12.784 127.304 12.784C127.68 12.784 128.028 12.846 128.348 12.97C128.668 13.09 128.944 13.268 129.176 13.504C129.408 13.74 129.588 14.03 129.716 14.374C129.848 14.714 129.914 15.102 129.914 15.538C129.914 15.738 129.892 15.872 129.848 15.94C129.804 16.008 129.724 16.042 129.608 16.042H125.678ZM136.136 18.106C136.488 18.106 136.766 18.022 136.97 17.854C137.178 17.682 137.282 17.452 137.282 17.164C137.282 17.04 137.264 16.924 137.228 16.816C137.192 16.708 137.13 16.616 137.042 16.54C136.954 16.46 136.836 16.398 136.688 16.354C136.544 16.31 136.362 16.288 136.142 16.288H134.936V18.106H136.136ZM134.936 13.732V15.478H135.998C136.158 15.478 136.304 15.456 136.436 15.412C136.572 15.364 136.688 15.3 136.784 15.22C136.884 15.136 136.96 15.038 137.012 14.926C137.068 14.81 137.096 14.682 137.096 14.542C137.096 14.442 137.078 14.344 137.042 14.248C137.006 14.148 136.944 14.06 136.856 13.984C136.772 13.908 136.66 13.848 136.52 13.804C136.38 13.756 136.206 13.732 135.998 13.732H134.936ZM136.04 12.88C136.42 12.88 136.748 12.918 137.024 12.994C137.3 13.066 137.526 13.168 137.702 13.3C137.882 13.432 138.014 13.588 138.098 13.768C138.182 13.948 138.224 14.142 138.224 14.35C138.224 14.482 138.206 14.62 138.17 14.764C138.134 14.908 138.072 15.046 137.984 15.178C137.896 15.306 137.776 15.424 137.624 15.532C137.476 15.64 137.286 15.724 137.054 15.784C137.49 15.864 137.834 16.024 138.086 16.264C138.342 16.5 138.47 16.816 138.47 17.212C138.47 17.516 138.408 17.78 138.284 18.004C138.16 18.228 137.99 18.414 137.774 18.562C137.562 18.71 137.314 18.82 137.03 18.892C136.75 18.964 136.454 19 136.142 19H133.706V12.88H136.04ZM142.764 16.324C142.304 16.34 141.916 16.378 141.6 16.438C141.284 16.494 141.028 16.568 140.832 16.66C140.636 16.748 140.494 16.854 140.406 16.978C140.322 17.102 140.28 17.238 140.28 17.386C140.28 17.53 140.302 17.654 140.346 17.758C140.394 17.858 140.458 17.942 140.538 18.01C140.622 18.074 140.718 18.122 140.826 18.154C140.938 18.182 141.06 18.196 141.192 18.196C141.528 18.196 141.816 18.134 142.056 18.01C142.3 17.882 142.536 17.698 142.764 17.458V16.324ZM139.344 13.732C140.036 13.088 140.86 12.766 141.816 12.766C142.168 12.766 142.48 12.824 142.752 12.94C143.028 13.052 143.258 13.212 143.442 13.42C143.63 13.628 143.772 13.876 143.868 14.164C143.968 14.448 144.018 14.764 144.018 15.112V19H143.442C143.318 19 143.224 18.982 143.16 18.946C143.096 18.906 143.042 18.828 142.998 18.712L142.872 18.214C142.716 18.354 142.562 18.48 142.41 18.592C142.258 18.7 142.1 18.792 141.936 18.868C141.776 18.944 141.602 19 141.414 19.036C141.23 19.076 141.026 19.096 140.802 19.096C140.554 19.096 140.322 19.062 140.106 18.994C139.894 18.926 139.71 18.824 139.554 18.688C139.398 18.548 139.274 18.376 139.182 18.172C139.094 17.968 139.05 17.728 139.05 17.452C139.05 17.216 139.112 16.986 139.236 16.762C139.364 16.538 139.572 16.338 139.86 16.162C140.152 15.982 140.534 15.834 141.006 15.718C141.482 15.602 142.068 15.536 142.764 15.52V15.112C142.764 14.672 142.67 14.344 142.482 14.128C142.294 13.912 142.018 13.804 141.654 13.804C141.406 13.804 141.198 13.836 141.03 13.9C140.862 13.96 140.716 14.026 140.592 14.098C140.468 14.17 140.358 14.238 140.262 14.302C140.166 14.362 140.064 14.392 139.956 14.392C139.868 14.392 139.792 14.37 139.728 14.326C139.668 14.278 139.618 14.22 139.578 14.152L139.344 13.732ZM146.619 17.464C146.799 17.696 146.995 17.86 147.207 17.956C147.423 18.048 147.661 18.094 147.921 18.094C148.425 18.094 148.817 17.91 149.097 17.542C149.381 17.174 149.523 16.626 149.523 15.898C149.523 15.522 149.491 15.202 149.427 14.938C149.363 14.67 149.271 14.452 149.151 14.284C149.031 14.116 148.885 13.994 148.713 13.918C148.541 13.842 148.347 13.804 148.131 13.804C147.803 13.804 147.519 13.876 147.279 14.02C147.043 14.16 146.823 14.362 146.619 14.626V17.464ZM146.553 13.768C146.809 13.468 147.099 13.226 147.423 13.042C147.751 12.858 148.131 12.766 148.563 12.766C148.907 12.766 149.219 12.836 149.499 12.976C149.779 13.112 150.019 13.312 150.219 13.576C150.419 13.84 150.573 14.168 150.681 14.56C150.793 14.948 150.849 15.394 150.849 15.898C150.849 16.35 150.787 16.772 150.663 17.164C150.543 17.552 150.369 17.89 150.141 18.178C149.913 18.462 149.637 18.686 149.313 18.85C148.989 19.01 148.623 19.09 148.215 19.09C147.855 19.09 147.549 19.032 147.297 18.916C147.049 18.8 146.823 18.64 146.619 18.436V21.034H145.329V12.88H146.109C146.285 12.88 146.397 12.962 146.445 13.126L146.553 13.768ZM157.284 12.88V19H155.994V15.166C155.994 15.082 155.998 14.99 156.006 14.89C156.014 14.79 156.026 14.688 156.042 14.584C156.002 14.672 155.962 14.754 155.922 14.83C155.886 14.902 155.846 14.968 155.802 15.028L153.144 18.682C153.096 18.758 153.032 18.832 152.952 18.904C152.872 18.972 152.782 19.006 152.682 19.006H151.902V12.88H153.192V16.714C153.192 16.798 153.186 16.892 153.174 16.996C153.166 17.1 153.154 17.204 153.138 17.308C153.218 17.124 153.3 16.972 153.384 16.852L156.042 13.204C156.09 13.124 156.154 13.05 156.234 12.982C156.314 12.914 156.404 12.88 156.504 12.88H157.284ZM161.922 16.324C161.462 16.34 161.074 16.378 160.758 16.438C160.442 16.494 160.186 16.568 159.99 16.66C159.794 16.748 159.652 16.854 159.564 16.978C159.48 17.102 159.438 17.238 159.438 17.386C159.438 17.53 159.46 17.654 159.504 17.758C159.552 17.858 159.616 17.942 159.696 18.01C159.78 18.074 159.876 18.122 159.984 18.154C160.096 18.182 160.218 18.196 160.35 18.196C160.686 18.196 160.974 18.134 161.214 18.01C161.458 17.882 161.694 17.698 161.922 17.458V16.324ZM158.502 13.732C159.194 13.088 160.018 12.766 160.974 12.766C161.326 12.766 161.638 12.824 161.91 12.94C162.186 13.052 162.416 13.212 162.6 13.42C162.788 13.628 162.93 13.876 163.026 14.164C163.126 14.448 163.176 14.764 163.176 15.112V19H162.6C162.476 19 162.382 18.982 162.318 18.946C162.254 18.906 162.2 18.828 162.156 18.712L162.03 18.214C161.874 18.354 161.72 18.48 161.568 18.592C161.416 18.7 161.258 18.792 161.094 18.868C160.934 18.944 160.76 19 160.572 19.036C160.388 19.076 160.184 19.096 159.96 19.096C159.712 19.096 159.48 19.062 159.264 18.994C159.052 18.926 158.868 18.824 158.712 18.688C158.556 18.548 158.432 18.376 158.34 18.172C158.252 17.968 158.208 17.728 158.208 17.452C158.208 17.216 158.27 16.986 158.394 16.762C158.522 16.538 158.73 16.338 159.018 16.162C159.31 15.982 159.692 15.834 160.164 15.718C160.64 15.602 161.226 15.536 161.922 15.52V15.112C161.922 14.672 161.828 14.344 161.64 14.128C161.452 13.912 161.176 13.804 160.812 13.804C160.564 13.804 160.356 13.836 160.188 13.9C160.02 13.96 159.874 14.026 159.75 14.098C159.626 14.17 159.516 14.238 159.42 14.302C159.324 14.362 159.222 14.392 159.114 14.392C159.026 14.392 158.95 14.37 158.886 14.326C158.826 14.278 158.776 14.22 158.736 14.152L158.502 13.732ZM169.707 12.88V19H168.423V16.222H165.777V19H164.487V12.88H165.777V15.25H168.423V12.88H169.707ZM176.256 13.852H174V19H172.71V13.852H170.448V12.88H176.256V13.852ZM179.436 12.784C179.888 12.784 180.296 12.858 180.66 13.006C181.028 13.154 181.34 13.364 181.596 13.636C181.856 13.908 182.056 14.238 182.196 14.626C182.336 15.014 182.406 15.45 182.406 15.934C182.406 16.418 182.336 16.854 182.196 17.242C182.056 17.63 181.856 17.962 181.596 18.238C181.34 18.51 181.028 18.72 180.66 18.868C180.296 19.016 179.888 19.09 179.436 19.09C178.98 19.09 178.568 19.016 178.2 18.868C177.836 18.72 177.524 18.51 177.264 18.238C177.004 17.962 176.804 17.63 176.664 17.242C176.524 16.854 176.454 16.418 176.454 15.934C176.454 15.45 176.524 15.014 176.664 14.626C176.804 14.238 177.004 13.908 177.264 13.636C177.524 13.364 177.836 13.154 178.2 13.006C178.568 12.858 178.98 12.784 179.436 12.784ZM179.436 18.082C179.988 18.082 180.398 17.898 180.666 17.53C180.938 17.158 181.074 16.628 181.074 15.94C181.074 15.252 180.938 14.722 180.666 14.35C180.398 13.974 179.988 13.786 179.436 13.786C178.876 13.786 178.46 13.974 178.188 14.35C177.916 14.722 177.78 15.252 177.78 15.94C177.78 16.628 177.916 17.158 178.188 17.53C178.46 17.898 178.876 18.082 179.436 18.082ZM185.875 18.106C186.227 18.106 186.505 18.022 186.709 17.854C186.917 17.682 187.021 17.452 187.021 17.164C187.021 17.04 187.003 16.924 186.967 16.816C186.931 16.708 186.869 16.616 186.781 16.54C186.693 16.46 186.575 16.398 186.427 16.354C186.283 16.31 186.101 16.288 185.881 16.288H184.675V18.106H185.875ZM184.675 13.732V15.478H185.737C185.897 15.478 186.043 15.456 186.175 15.412C186.311 15.364 186.427 15.3 186.523 15.22C186.623 15.136 186.699 15.038 186.751 14.926C186.807 14.81 186.835 14.682 186.835 14.542C186.835 14.442 186.817 14.344 186.781 14.248C186.745 14.148 186.683 14.06 186.595 13.984C186.511 13.908 186.399 13.848 186.259 13.804C186.119 13.756 185.945 13.732 185.737 13.732H184.675ZM185.779 12.88C186.159 12.88 186.487 12.918 186.763 12.994C187.039 13.066 187.265 13.168 187.441 13.3C187.621 13.432 187.753 13.588 187.837 13.768C187.921 13.948 187.963 14.142 187.963 14.35C187.963 14.482 187.945 14.62 187.909 14.764C187.873 14.908 187.811 15.046 187.723 15.178C187.635 15.306 187.515 15.424 187.363 15.532C187.215 15.64 187.025 15.724 186.793 15.784C187.229 15.864 187.573 16.024 187.825 16.264C188.081 16.5 188.209 16.816 188.209 17.212C188.209 17.516 188.147 17.78 188.023 18.004C187.899 18.228 187.729 18.414 187.513 18.562C187.301 18.71 187.053 18.82 186.769 18.892C186.489 18.964 186.193 19 185.881 19H183.445V12.88H185.779Z" fill="#2B2929"/>
</svg>
