<svg width="128" height="30" viewBox="0 0 128 30" fill="none" xmlns="http://www.w3.org/2000/svg">
<g clip-path="url(#clip0_212_5489)">
<path d="M128 0H0V30H128V0Z" fill="#2B2929"/>
<path d="M16.83 18.464C17.294 18.46 17.712 18.38 18.084 18.224C18.46 18.068 18.78 17.856 19.044 17.588C19.308 17.32 19.512 17.008 19.656 16.652C19.8 16.292 19.872 15.91 19.872 15.506C19.872 15.106 19.8 14.728 19.656 14.372C19.512 14.016 19.308 13.704 19.044 13.436C18.78 13.168 18.46 12.956 18.084 12.8C17.712 12.64 17.294 12.558 16.83 12.554V18.464ZM16.242 12.554C15.778 12.558 15.358 12.64 14.982 12.8C14.606 12.956 14.286 13.168 14.022 13.436C13.758 13.704 13.554 14.016 13.41 14.372C13.266 14.728 13.194 15.106 13.194 15.506C13.194 15.91 13.266 16.292 13.41 16.652C13.554 17.008 13.758 17.32 14.022 17.588C14.286 17.856 14.606 18.068 14.982 18.224C15.358 18.38 15.778 18.46 16.242 18.464V12.554ZM16.83 12.074C17.394 12.082 17.902 12.178 18.354 12.362C18.806 12.546 19.19 12.794 19.506 13.106C19.822 13.418 20.064 13.782 20.232 14.198C20.404 14.61 20.49 15.046 20.49 15.506C20.49 15.818 20.452 16.12 20.376 16.412C20.3 16.7 20.188 16.972 20.04 17.228C19.896 17.48 19.718 17.712 19.506 17.924C19.294 18.132 19.052 18.312 18.78 18.464C18.512 18.616 18.214 18.734 17.886 18.818C17.558 18.902 17.206 18.946 16.83 18.95V20H16.242V18.95C15.678 18.946 15.168 18.852 14.712 18.668C14.26 18.484 13.876 18.236 13.56 17.924C13.244 17.612 13 17.248 12.828 16.832C12.66 16.416 12.576 15.974 12.576 15.506C12.576 15.046 12.662 14.61 12.834 14.198C13.01 13.782 13.258 13.418 13.578 13.106C13.898 12.794 14.282 12.546 14.73 12.362C15.182 12.178 15.686 12.082 16.242 12.074V11.084H16.83V12.074ZM26.5671 14.03V20H25.9971V15.188C25.9971 15.132 25.9991 15.072 26.0031 15.008C26.0071 14.944 26.0131 14.88 26.0211 14.816C25.9931 14.872 25.9651 14.924 25.9371 14.972C25.9131 15.016 25.8871 15.056 25.8591 15.092C25.8511 15.1 25.7951 15.176 25.6911 15.32C25.5871 15.46 25.4491 15.642 25.2771 15.866C25.1091 16.09 24.9171 16.344 24.7011 16.628C24.4891 16.912 24.2731 17.202 24.0531 17.498C23.5331 18.19 22.9431 18.976 22.2831 19.856C22.2591 19.892 22.2271 19.926 22.1871 19.958C22.1511 19.986 22.1111 20 22.0671 20H21.7371V14.03H22.3131V18.842C22.3131 18.898 22.3111 18.958 22.3071 19.022C22.3031 19.086 22.2971 19.15 22.2891 19.214C22.3131 19.158 22.3391 19.108 22.3671 19.064C22.3951 19.016 22.4211 18.974 22.4451 18.938C22.4491 18.93 22.5031 18.856 22.6071 18.716C22.7151 18.576 22.8531 18.394 23.0211 18.17C23.1931 17.942 23.3851 17.686 23.5971 17.402C23.8091 17.118 24.0271 16.828 24.2511 16.532C24.7711 15.84 25.3611 15.056 26.0211 14.18C26.0451 14.14 26.0751 14.106 26.1111 14.078C26.1511 14.046 26.1931 14.03 26.2371 14.03H26.5671ZM33.2 20H32.624V14.486H30.212C30.172 15.274 30.104 15.96 30.008 16.544C29.916 17.124 29.806 17.622 29.678 18.038C29.55 18.45 29.406 18.788 29.246 19.052C29.086 19.316 28.918 19.524 28.742 19.676C28.57 19.828 28.394 19.932 28.214 19.988C28.034 20.044 27.856 20.072 27.68 20.072C27.584 20.072 27.5 20.064 27.428 20.048C27.356 20.032 27.32 20.008 27.32 19.976V19.61H27.584C27.728 19.61 27.874 19.582 28.022 19.526C28.174 19.466 28.324 19.36 28.472 19.208C28.62 19.056 28.762 18.848 28.898 18.584C29.034 18.32 29.156 17.982 29.264 17.57C29.376 17.154 29.472 16.656 29.552 16.076C29.636 15.496 29.696 14.814 29.732 14.03H33.2V20ZM37.078 19.574C37.35 19.574 37.586 19.542 37.786 19.478C37.986 19.41 38.152 19.318 38.284 19.202C38.416 19.082 38.514 18.942 38.578 18.782C38.642 18.618 38.674 18.44 38.674 18.248C38.674 18.072 38.646 17.906 38.59 17.75C38.538 17.594 38.448 17.458 38.32 17.342C38.196 17.226 38.03 17.134 37.822 17.066C37.614 16.998 37.358 16.964 37.054 16.964H35.518V19.574H37.078ZM37.054 16.538C37.462 16.538 37.802 16.586 38.074 16.682C38.35 16.778 38.57 16.906 38.734 17.066C38.898 17.222 39.014 17.402 39.082 17.606C39.154 17.81 39.19 18.02 39.19 18.236C39.19 18.488 39.144 18.722 39.052 18.938C38.964 19.154 38.83 19.342 38.65 19.502C38.474 19.658 38.254 19.78 37.99 19.868C37.73 19.956 37.428 20 37.084 20H34.966V14.03H35.518V16.538H37.054ZM44.335 14.468H41.839V20H41.263V14.468H38.767V14.03H44.335V14.468ZM45.8881 18.698C46.0041 18.87 46.1241 19.016 46.2481 19.136C46.3761 19.252 46.5101 19.348 46.6501 19.424C46.7901 19.496 46.9381 19.548 47.0941 19.58C47.2541 19.612 47.4221 19.628 47.5981 19.628C47.9501 19.628 48.2581 19.564 48.5221 19.436C48.7861 19.308 49.0061 19.128 49.1821 18.896C49.3621 18.66 49.4961 18.38 49.5841 18.056C49.6761 17.728 49.7221 17.368 49.7221 16.976C49.7221 16.088 49.5581 15.436 49.2301 15.02C48.9021 14.6 48.4321 14.39 47.8201 14.39C47.4241 14.39 47.0661 14.492 46.7461 14.696C46.4261 14.9 46.1401 15.184 45.8881 15.548V18.698ZM45.8641 15.104C46.1281 14.744 46.4361 14.458 46.7881 14.246C47.1441 14.034 47.5421 13.928 47.9821 13.928C48.7141 13.928 49.2841 14.182 49.6921 14.69C50.1041 15.198 50.3101 15.96 50.3101 16.976C50.3101 17.412 50.2521 17.82 50.1361 18.2C50.0241 18.576 49.8561 18.904 49.6321 19.184C49.4121 19.46 49.1401 19.678 48.8161 19.838C48.4961 19.998 48.1261 20.078 47.7061 20.078C47.3021 20.078 46.9521 20.004 46.6561 19.856C46.3601 19.708 46.1041 19.49 45.8881 19.202V22.112H45.3121V14.03H45.6301C45.7301 14.03 45.7881 14.08 45.8041 14.18L45.8641 15.104ZM54.0855 13.934C54.5135 13.934 54.8955 14.008 55.2315 14.156C55.5715 14.3 55.8575 14.506 56.0895 14.774C56.3215 15.042 56.4975 15.366 56.6175 15.746C56.7415 16.122 56.8035 16.544 56.8035 17.012C56.8035 17.48 56.7415 17.902 56.6175 18.278C56.4975 18.654 56.3215 18.976 56.0895 19.244C55.8575 19.512 55.5715 19.718 55.2315 19.862C54.8955 20.006 54.5135 20.078 54.0855 20.078C53.6575 20.078 53.2735 20.006 52.9335 19.862C52.5975 19.718 52.3115 19.512 52.0755 19.244C51.8435 18.976 51.6655 18.654 51.5415 18.278C51.4215 17.902 51.3615 17.48 51.3615 17.012C51.3615 16.544 51.4215 16.122 51.5415 15.746C51.6655 15.366 51.8435 15.042 52.0755 14.774C52.3115 14.506 52.5975 14.3 52.9335 14.156C53.2735 14.008 53.6575 13.934 54.0855 13.934ZM54.0855 19.628C54.4415 19.628 54.7515 19.568 55.0155 19.448C55.2835 19.324 55.5055 19.148 55.6815 18.92C55.8615 18.692 55.9955 18.418 56.0835 18.098C56.1715 17.774 56.2155 17.412 56.2155 17.012C56.2155 16.616 56.1715 16.256 56.0835 15.932C55.9955 15.608 55.8615 15.332 55.6815 15.104C55.5055 14.872 55.2835 14.694 55.0155 14.57C54.7515 14.446 54.4415 14.384 54.0855 14.384C53.7295 14.384 53.4175 14.446 53.1495 14.57C52.8855 14.694 52.6635 14.872 52.4835 15.104C52.3075 15.332 52.1735 15.608 52.0815 15.932C51.9935 16.256 51.9495 16.616 51.9495 17.012C51.9495 17.412 51.9935 17.774 52.0815 18.098C52.1735 18.418 52.3075 18.692 52.4835 18.92C52.6635 19.148 52.8855 19.324 53.1495 19.448C53.4175 19.568 53.7295 19.628 54.0855 19.628ZM60.3249 19.592C60.5769 19.592 60.8049 19.562 61.0089 19.502C61.2129 19.442 61.3849 19.356 61.5249 19.244C61.6649 19.132 61.7729 18.996 61.8489 18.836C61.9249 18.676 61.9629 18.498 61.9629 18.302C61.9629 18.122 61.9329 17.958 61.8729 17.81C61.8129 17.662 61.7169 17.536 61.5849 17.432C61.4569 17.324 61.2889 17.242 61.0809 17.186C60.8769 17.126 60.6309 17.096 60.3429 17.096H58.7649V19.592H60.3249ZM58.7649 14.426V16.712H60.1809C60.3969 16.712 60.5969 16.684 60.7809 16.628C60.9649 16.568 61.1229 16.484 61.2549 16.376C61.3869 16.268 61.4889 16.14 61.5609 15.992C61.6369 15.84 61.6749 15.672 61.6749 15.488C61.6749 15.352 61.6489 15.222 61.5969 15.098C61.5489 14.97 61.4649 14.856 61.3449 14.756C61.2289 14.656 61.0749 14.576 60.8829 14.516C60.6949 14.456 60.4609 14.426 60.1809 14.426H58.7649ZM60.1989 14.03C60.5589 14.03 60.8649 14.068 61.1169 14.144C61.3689 14.216 61.5729 14.316 61.7289 14.444C61.8849 14.568 61.9989 14.714 62.0709 14.882C62.1429 15.05 62.1789 15.226 62.1789 15.41C62.1789 15.542 62.1589 15.682 62.1189 15.83C62.0789 15.974 62.0109 16.114 61.9149 16.25C61.8189 16.386 61.6889 16.508 61.5249 16.616C61.3649 16.724 61.1629 16.804 60.9189 16.856C61.4589 16.92 61.8569 17.082 62.1129 17.342C62.3689 17.598 62.4969 17.92 62.4969 18.308C62.4969 18.576 62.4429 18.816 62.3349 19.028C62.2309 19.236 62.0829 19.412 61.8909 19.556C61.7029 19.7 61.4749 19.81 61.2069 19.886C60.9429 19.962 60.6509 20 60.3309 20H58.2129V14.03H60.1989ZM67.226 17.114C66.658 17.134 66.168 17.18 65.756 17.252C65.348 17.32 65.01 17.414 64.742 17.534C64.478 17.654 64.282 17.798 64.154 17.966C64.026 18.13 63.962 18.318 63.962 18.53C63.962 18.73 63.994 18.904 64.058 19.052C64.126 19.196 64.214 19.316 64.322 19.412C64.434 19.504 64.562 19.572 64.706 19.616C64.85 19.66 65 19.682 65.156 19.682C65.388 19.682 65.6 19.658 65.792 19.61C65.988 19.558 66.168 19.488 66.332 19.4C66.5 19.308 66.656 19.2 66.8 19.076C66.944 18.952 67.086 18.818 67.226 18.674V17.114ZM63.716 14.876C64.028 14.564 64.356 14.328 64.7 14.168C65.044 14.008 65.434 13.928 65.87 13.928C66.19 13.928 66.47 13.98 66.71 14.084C66.95 14.184 67.148 14.33 67.304 14.522C67.464 14.71 67.584 14.94 67.664 15.212C67.744 15.48 67.784 15.78 67.784 16.112V20H67.556C67.436 20 67.362 19.944 67.334 19.832L67.25 19.064C67.086 19.224 66.922 19.368 66.758 19.496C66.598 19.624 66.43 19.732 66.254 19.82C66.078 19.908 65.888 19.976 65.684 20.024C65.48 20.072 65.256 20.096 65.012 20.096C64.808 20.096 64.61 20.066 64.418 20.006C64.226 19.946 64.054 19.854 63.902 19.73C63.754 19.606 63.634 19.448 63.542 19.256C63.454 19.06 63.41 18.826 63.41 18.554C63.41 18.302 63.482 18.068 63.626 17.852C63.77 17.636 63.996 17.448 64.304 17.288C64.612 17.128 65.006 17 65.486 16.904C65.97 16.808 66.55 16.752 67.226 16.736V16.112C67.226 15.56 67.106 15.136 66.866 14.84C66.63 14.54 66.278 14.39 65.81 14.39C65.522 14.39 65.276 14.43 65.072 14.51C64.872 14.59 64.702 14.678 64.562 14.774C64.422 14.87 64.308 14.958 64.22 15.038C64.132 15.118 64.058 15.158 63.998 15.158C63.954 15.158 63.918 15.148 63.89 15.128C63.862 15.108 63.838 15.082 63.818 15.05L63.716 14.876ZM74.0733 14.468H71.5773V20H71.0013V14.468H68.5053V14.03H74.0733V14.468ZM77.1624 19.574C77.4344 19.574 77.6704 19.542 77.8704 19.478C78.0704 19.41 78.2364 19.318 78.3684 19.202C78.5004 19.082 78.5984 18.942 78.6624 18.782C78.7264 18.618 78.7584 18.44 78.7584 18.248C78.7584 18.072 78.7304 17.906 78.6744 17.75C78.6224 17.594 78.5324 17.458 78.4044 17.342C78.2804 17.226 78.1144 17.134 77.9064 17.066C77.6984 16.998 77.4424 16.964 77.1384 16.964H75.6024V19.574H77.1624ZM77.1384 16.538C77.5464 16.538 77.8864 16.586 78.1584 16.682C78.4344 16.778 78.6544 16.906 78.8184 17.066C78.9824 17.222 79.0984 17.402 79.1664 17.606C79.2384 17.81 79.2744 18.02 79.2744 18.236C79.2744 18.488 79.2284 18.722 79.1364 18.938C79.0484 19.154 78.9144 19.342 78.7344 19.502C78.5584 19.658 78.3384 19.78 78.0744 19.868C77.8144 19.956 77.5124 20 77.1684 20H75.0504V14.03H75.6024V16.538H77.1384Z" fill="white"/>
<path d="M93 1V29" stroke="white" stroke-width="0.5"/>
<path d="M118.833 21.235L110.663 9.98756L102.84 20.7601" stroke="white" stroke-width="0.5"/>
</g>
<defs>
<clipPath id="clip0_212_5489">
<rect width="128" height="30" fill="white"/>
</clipPath>
</defs>
</svg>
