<svg width="128" height="30" viewBox="0 0 128 30" fill="none" xmlns="http://www.w3.org/2000/svg">
<g clip-path="url(#clip0_212_5550)">
<g clip-path="url(#clip1_212_5550)">
<rect x="-4" y="-2" width="100" height="34" fill="#2B2929"/>
<path d="M16.83 17.664C17.294 17.66 17.712 17.58 18.084 17.424C18.46 17.268 18.78 17.056 19.044 16.788C19.308 16.52 19.512 16.208 19.656 15.852C19.8 15.492 19.872 15.11 19.872 14.706C19.872 14.306 19.8 13.928 19.656 13.572C19.512 13.216 19.308 12.904 19.044 12.636C18.78 12.368 18.46 12.156 18.084 12C17.712 11.84 17.294 11.758 16.83 11.754V17.664ZM16.242 11.754C15.778 11.758 15.358 11.84 14.982 12C14.606 12.156 14.286 12.368 14.022 12.636C13.758 12.904 13.554 13.216 13.41 13.572C13.266 13.928 13.194 14.306 13.194 14.706C13.194 15.11 13.266 15.492 13.41 15.852C13.554 16.208 13.758 16.52 14.022 16.788C14.286 17.056 14.606 17.268 14.982 17.424C15.358 17.58 15.778 17.66 16.242 17.664V11.754ZM16.83 11.274C17.394 11.282 17.902 11.378 18.354 11.562C18.806 11.746 19.19 11.994 19.506 12.306C19.822 12.618 20.064 12.982 20.232 13.398C20.404 13.81 20.49 14.246 20.49 14.706C20.49 15.018 20.452 15.32 20.376 15.612C20.3 15.9 20.188 16.172 20.04 16.428C19.896 16.68 19.718 16.912 19.506 17.124C19.294 17.332 19.052 17.512 18.78 17.664C18.512 17.816 18.214 17.934 17.886 18.018C17.558 18.102 17.206 18.146 16.83 18.15V19.2H16.242V18.15C15.678 18.146 15.168 18.052 14.712 17.868C14.26 17.684 13.876 17.436 13.56 17.124C13.244 16.812 13 16.448 12.828 16.032C12.66 15.616 12.576 15.174 12.576 14.706C12.576 14.246 12.662 13.81 12.834 13.398C13.01 12.982 13.258 12.618 13.578 12.306C13.898 11.994 14.282 11.746 14.73 11.562C15.182 11.378 15.686 11.282 16.242 11.274V10.284H16.83V11.274ZM26.5671 13.23V19.2H25.9971V14.388C25.9971 14.332 25.9991 14.272 26.0031 14.208C26.0071 14.144 26.0131 14.08 26.0211 14.016C25.9931 14.072 25.9651 14.124 25.9371 14.172C25.9131 14.216 25.8871 14.256 25.8591 14.292C25.8511 14.3 25.7951 14.376 25.6911 14.52C25.5871 14.66 25.4491 14.842 25.2771 15.066C25.1091 15.29 24.9171 15.544 24.7011 15.828C24.4891 16.112 24.2731 16.402 24.0531 16.698C23.5331 17.39 22.9431 18.176 22.2831 19.056C22.2591 19.092 22.2271 19.126 22.1871 19.158C22.1511 19.186 22.1111 19.2 22.0671 19.2H21.7371V13.23H22.3131V18.042C22.3131 18.098 22.3111 18.158 22.3071 18.222C22.3031 18.286 22.2971 18.35 22.2891 18.414C22.3131 18.358 22.3391 18.308 22.3671 18.264C22.3951 18.216 22.4211 18.174 22.4451 18.138C22.4491 18.13 22.5031 18.056 22.6071 17.916C22.7151 17.776 22.8531 17.594 23.0211 17.37C23.1931 17.142 23.3851 16.886 23.5971 16.602C23.8091 16.318 24.0271 16.028 24.2511 15.732C24.7711 15.04 25.3611 14.256 26.0211 13.38C26.0451 13.34 26.0751 13.306 26.1111 13.278C26.1511 13.246 26.1931 13.23 26.2371 13.23H26.5671ZM33.2 19.2H32.624V13.686H30.212C30.172 14.474 30.104 15.16 30.008 15.744C29.916 16.324 29.806 16.822 29.678 17.238C29.55 17.65 29.406 17.988 29.246 18.252C29.086 18.516 28.918 18.724 28.742 18.876C28.57 19.028 28.394 19.132 28.214 19.188C28.034 19.244 27.856 19.272 27.68 19.272C27.584 19.272 27.5 19.264 27.428 19.248C27.356 19.232 27.32 19.208 27.32 19.176V18.81H27.584C27.728 18.81 27.874 18.782 28.022 18.726C28.174 18.666 28.324 18.56 28.472 18.408C28.62 18.256 28.762 18.048 28.898 17.784C29.034 17.52 29.156 17.182 29.264 16.77C29.376 16.354 29.472 15.856 29.552 15.276C29.636 14.696 29.696 14.014 29.732 13.23H33.2V19.2ZM37.078 18.774C37.35 18.774 37.586 18.742 37.786 18.678C37.986 18.61 38.152 18.518 38.284 18.402C38.416 18.282 38.514 18.142 38.578 17.982C38.642 17.818 38.674 17.64 38.674 17.448C38.674 17.272 38.646 17.106 38.59 16.95C38.538 16.794 38.448 16.658 38.32 16.542C38.196 16.426 38.03 16.334 37.822 16.266C37.614 16.198 37.358 16.164 37.054 16.164H35.518V18.774H37.078ZM37.054 15.738C37.462 15.738 37.802 15.786 38.074 15.882C38.35 15.978 38.57 16.106 38.734 16.266C38.898 16.422 39.014 16.602 39.082 16.806C39.154 17.01 39.19 17.22 39.19 17.436C39.19 17.688 39.144 17.922 39.052 18.138C38.964 18.354 38.83 18.542 38.65 18.702C38.474 18.858 38.254 18.98 37.99 19.068C37.73 19.156 37.428 19.2 37.084 19.2H34.966V13.23H35.518V15.738H37.054ZM44.335 13.668H41.839V19.2H41.263V13.668H38.767V13.23H44.335V13.668ZM45.8881 17.898C46.0041 18.07 46.1241 18.216 46.2481 18.336C46.3761 18.452 46.5101 18.548 46.6501 18.624C46.7901 18.696 46.9381 18.748 47.0941 18.78C47.2541 18.812 47.4221 18.828 47.5981 18.828C47.9501 18.828 48.2581 18.764 48.5221 18.636C48.7861 18.508 49.0061 18.328 49.1821 18.096C49.3621 17.86 49.4961 17.58 49.5841 17.256C49.6761 16.928 49.7221 16.568 49.7221 16.176C49.7221 15.288 49.5581 14.636 49.2301 14.22C48.9021 13.8 48.4321 13.59 47.8201 13.59C47.4241 13.59 47.0661 13.692 46.7461 13.896C46.4261 14.1 46.1401 14.384 45.8881 14.748V17.898ZM45.8641 14.304C46.1281 13.944 46.4361 13.658 46.7881 13.446C47.1441 13.234 47.5421 13.128 47.9821 13.128C48.7141 13.128 49.2841 13.382 49.6921 13.89C50.1041 14.398 50.3101 15.16 50.3101 16.176C50.3101 16.612 50.2521 17.02 50.1361 17.4C50.0241 17.776 49.8561 18.104 49.6321 18.384C49.4121 18.66 49.1401 18.878 48.8161 19.038C48.4961 19.198 48.1261 19.278 47.7061 19.278C47.3021 19.278 46.9521 19.204 46.6561 19.056C46.3601 18.908 46.1041 18.69 45.8881 18.402V21.312H45.3121V13.23H45.6301C45.7301 13.23 45.7881 13.28 45.8041 13.38L45.8641 14.304ZM54.0855 13.134C54.5135 13.134 54.8955 13.208 55.2315 13.356C55.5715 13.5 55.8575 13.706 56.0895 13.974C56.3215 14.242 56.4975 14.566 56.6175 14.946C56.7415 15.322 56.8035 15.744 56.8035 16.212C56.8035 16.68 56.7415 17.102 56.6175 17.478C56.4975 17.854 56.3215 18.176 56.0895 18.444C55.8575 18.712 55.5715 18.918 55.2315 19.062C54.8955 19.206 54.5135 19.278 54.0855 19.278C53.6575 19.278 53.2735 19.206 52.9335 19.062C52.5975 18.918 52.3115 18.712 52.0755 18.444C51.8435 18.176 51.6655 17.854 51.5415 17.478C51.4215 17.102 51.3615 16.68 51.3615 16.212C51.3615 15.744 51.4215 15.322 51.5415 14.946C51.6655 14.566 51.8435 14.242 52.0755 13.974C52.3115 13.706 52.5975 13.5 52.9335 13.356C53.2735 13.208 53.6575 13.134 54.0855 13.134ZM54.0855 18.828C54.4415 18.828 54.7515 18.768 55.0155 18.648C55.2835 18.524 55.5055 18.348 55.6815 18.12C55.8615 17.892 55.9955 17.618 56.0835 17.298C56.1715 16.974 56.2155 16.612 56.2155 16.212C56.2155 15.816 56.1715 15.456 56.0835 15.132C55.9955 14.808 55.8615 14.532 55.6815 14.304C55.5055 14.072 55.2835 13.894 55.0155 13.77C54.7515 13.646 54.4415 13.584 54.0855 13.584C53.7295 13.584 53.4175 13.646 53.1495 13.77C52.8855 13.894 52.6635 14.072 52.4835 14.304C52.3075 14.532 52.1735 14.808 52.0815 15.132C51.9935 15.456 51.9495 15.816 51.9495 16.212C51.9495 16.612 51.9935 16.974 52.0815 17.298C52.1735 17.618 52.3075 17.892 52.4835 18.12C52.6635 18.348 52.8855 18.524 53.1495 18.648C53.4175 18.768 53.7295 18.828 54.0855 18.828ZM60.3249 18.792C60.5769 18.792 60.8049 18.762 61.0089 18.702C61.2129 18.642 61.3849 18.556 61.5249 18.444C61.6649 18.332 61.7729 18.196 61.8489 18.036C61.9249 17.876 61.9629 17.698 61.9629 17.502C61.9629 17.322 61.9329 17.158 61.8729 17.01C61.8129 16.862 61.7169 16.736 61.5849 16.632C61.4569 16.524 61.2889 16.442 61.0809 16.386C60.8769 16.326 60.6309 16.296 60.3429 16.296H58.7649V18.792H60.3249ZM58.7649 13.626V15.912H60.1809C60.3969 15.912 60.5969 15.884 60.7809 15.828C60.9649 15.768 61.1229 15.684 61.2549 15.576C61.3869 15.468 61.4889 15.34 61.5609 15.192C61.6369 15.04 61.6749 14.872 61.6749 14.688C61.6749 14.552 61.6489 14.422 61.5969 14.298C61.5489 14.17 61.4649 14.056 61.3449 13.956C61.2289 13.856 61.0749 13.776 60.8829 13.716C60.6949 13.656 60.4609 13.626 60.1809 13.626H58.7649ZM60.1989 13.23C60.5589 13.23 60.8649 13.268 61.1169 13.344C61.3689 13.416 61.5729 13.516 61.7289 13.644C61.8849 13.768 61.9989 13.914 62.0709 14.082C62.1429 14.25 62.1789 14.426 62.1789 14.61C62.1789 14.742 62.1589 14.882 62.1189 15.03C62.0789 15.174 62.0109 15.314 61.9149 15.45C61.8189 15.586 61.6889 15.708 61.5249 15.816C61.3649 15.924 61.1629 16.004 60.9189 16.056C61.4589 16.12 61.8569 16.282 62.1129 16.542C62.3689 16.798 62.4969 17.12 62.4969 17.508C62.4969 17.776 62.4429 18.016 62.3349 18.228C62.2309 18.436 62.0829 18.612 61.8909 18.756C61.7029 18.9 61.4749 19.01 61.2069 19.086C60.9429 19.162 60.6509 19.2 60.3309 19.2H58.2129V13.23H60.1989ZM67.226 16.314C66.658 16.334 66.168 16.38 65.756 16.452C65.348 16.52 65.01 16.614 64.742 16.734C64.478 16.854 64.282 16.998 64.154 17.166C64.026 17.33 63.962 17.518 63.962 17.73C63.962 17.93 63.994 18.104 64.058 18.252C64.126 18.396 64.214 18.516 64.322 18.612C64.434 18.704 64.562 18.772 64.706 18.816C64.85 18.86 65 18.882 65.156 18.882C65.388 18.882 65.6 18.858 65.792 18.81C65.988 18.758 66.168 18.688 66.332 18.6C66.5 18.508 66.656 18.4 66.8 18.276C66.944 18.152 67.086 18.018 67.226 17.874V16.314ZM63.716 14.076C64.028 13.764 64.356 13.528 64.7 13.368C65.044 13.208 65.434 13.128 65.87 13.128C66.19 13.128 66.47 13.18 66.71 13.284C66.95 13.384 67.148 13.53 67.304 13.722C67.464 13.91 67.584 14.14 67.664 14.412C67.744 14.68 67.784 14.98 67.784 15.312V19.2H67.556C67.436 19.2 67.362 19.144 67.334 19.032L67.25 18.264C67.086 18.424 66.922 18.568 66.758 18.696C66.598 18.824 66.43 18.932 66.254 19.02C66.078 19.108 65.888 19.176 65.684 19.224C65.48 19.272 65.256 19.296 65.012 19.296C64.808 19.296 64.61 19.266 64.418 19.206C64.226 19.146 64.054 19.054 63.902 18.93C63.754 18.806 63.634 18.648 63.542 18.456C63.454 18.26 63.41 18.026 63.41 17.754C63.41 17.502 63.482 17.268 63.626 17.052C63.77 16.836 63.996 16.648 64.304 16.488C64.612 16.328 65.006 16.2 65.486 16.104C65.97 16.008 66.55 15.952 67.226 15.936V15.312C67.226 14.76 67.106 14.336 66.866 14.04C66.63 13.74 66.278 13.59 65.81 13.59C65.522 13.59 65.276 13.63 65.072 13.71C64.872 13.79 64.702 13.878 64.562 13.974C64.422 14.07 64.308 14.158 64.22 14.238C64.132 14.318 64.058 14.358 63.998 14.358C63.954 14.358 63.918 14.348 63.89 14.328C63.862 14.308 63.838 14.282 63.818 14.25L63.716 14.076ZM74.0733 13.668H71.5773V19.2H71.0013V13.668H68.5053V13.23H74.0733V13.668ZM77.1624 18.774C77.4344 18.774 77.6704 18.742 77.8704 18.678C78.0704 18.61 78.2364 18.518 78.3684 18.402C78.5004 18.282 78.5984 18.142 78.6624 17.982C78.7264 17.818 78.7584 17.64 78.7584 17.448C78.7584 17.272 78.7304 17.106 78.6744 16.95C78.6224 16.794 78.5324 16.658 78.4044 16.542C78.2804 16.426 78.1144 16.334 77.9064 16.266C77.6984 16.198 77.4424 16.164 77.1384 16.164H75.6024V18.774H77.1624ZM77.1384 15.738C77.5464 15.738 77.8864 15.786 78.1584 15.882C78.4344 15.978 78.6544 16.106 78.8184 16.266C78.9824 16.422 79.0984 16.602 79.1664 16.806C79.2384 17.01 79.2744 17.22 79.2744 17.436C79.2744 17.688 79.2284 17.922 79.1364 18.138C79.0484 18.354 78.9144 18.542 78.7344 18.702C78.5584 18.858 78.3384 18.98 78.0744 19.068C77.8144 19.156 77.5124 19.2 77.1684 19.2H75.0504V13.23H75.6024V15.738H77.1384Z" fill="white"/>
</g>
<rect x="-3.75" y="-1.75" width="99.5" height="33.5" stroke="black" stroke-width="0.5"/>
<rect x="93.25" y="-1.75" width="39.5" height="36.5" fill="#2B2929" stroke="white" stroke-width="0.5"/>
<path d="M102 10L110.5 21L118 10" stroke="white" stroke-width="0.5"/>
</g>
<defs>
<clipPath id="clip0_212_5550">
<rect width="128" height="30" fill="white"/>
</clipPath>
<clipPath id="clip1_212_5550">
<rect x="-4" y="-2" width="100" height="34" fill="white"/>
</clipPath>
</defs>
</svg>
