<svg width="42" height="42" viewBox="0 0 42 42" fill="none" xmlns="http://www.w3.org/2000/svg">
<path fill-rule="evenodd" clip-rule="evenodd" d="M12.7826 16.1008C11.5286 16.6917 10.5825 17.3071 10.5825 17.3071L20.923 0L28.8654 12.8757C28.8654 12.8757 28.4254 12.6049 27.0173 12.4572C25.0372 12.2603 22.2871 12.7526 20.131 13.2943C17.9749 13.8359 14.8727 15.1161 12.7826 16.1008ZM29.8115 14.5252L33.1996 20.2614C33.1996 20.2614 30.5155 19.7444 28.1834 19.9414C25.8513 20.1383 19.383 20.9261 19.383 20.9261C19.383 20.9261 24.8172 17.8488 26.9733 16.6178C29.1074 15.3869 29.8115 14.5252 29.8115 14.5252ZM35.5317 24.1759L42 35.0821L16.2367 35.1559C16.2367 35.1559 20.0869 33.3341 23.8711 31.7585C27.6553 30.1829 29.6354 29.272 32.5615 27.4502C35.4657 25.6038 35.5317 24.1759 35.5317 24.1759ZM0 35.2298H11.5066C11.5066 35.2298 19.823 31.66 24.6412 28.9766C28.8654 26.6378 31.7255 24.3728 31.0215 22.7726C30.4935 21.5909 27.8974 21.5909 24.7732 21.5909H24.7732C23.4647 21.5909 22.0648 21.6522 20.8204 21.7068L20.8203 21.7068C19.7005 21.7559 18.7067 21.7995 18.0189 21.7878C16.2832 21.7451 16.5483 21.5544 17.1083 21.1515L17.1084 21.1515L17.1084 21.1514L17.1086 21.1513C17.1945 21.0895 17.2873 21.0228 17.3808 20.9508C17.7401 20.6711 20.4057 18.977 22.3863 17.7182L22.3868 17.7179C23.1959 17.2037 23.8907 16.7621 24.2672 16.5194C26.0933 15.313 25.3672 14.7468 24.5312 15.0176C23.2331 15.4607 19.0089 17.5533 14.6307 20.5076C10.2525 23.4373 7.04035 26.5147 4.59823 29.0504C2.15611 31.5615 0 35.2298 0 35.2298ZM0.638053 36.9285V38.0363H8.66844V38.7257H3.7182V40.1043H8.66844V40.8183H0.572049V42H10.7365C12.0346 42 12.4746 41.4338 12.4746 40.7691C12.4746 39.7843 11.5946 39.4642 11.5946 39.4642C11.5946 39.4642 12.4746 39.1442 12.4746 38.3072C12.4746 37.4701 11.7926 36.8546 10.7365 36.8546C9.70249 36.8546 0.638053 36.9285 0.638053 36.9285ZM25.1693 36.9039H15.3128C14.3007 36.9039 13.4647 37.8394 13.4647 38.9719V39.9074C13.4647 41.0399 14.3007 41.9754 15.3128 41.9754H25.1693C26.1813 41.9754 27.0174 41.0399 27.0174 39.9074V38.9719C27.0174 37.8394 26.1813 36.9039 25.1693 36.9039ZM23.1452 40.7691H17.3369V38.0856H23.1452V40.7691ZM41.6921 38.3072C41.6921 39.1688 40.812 39.4642 40.812 39.4642C40.812 39.4642 41.6921 39.7843 41.6921 40.7691C41.6921 41.4338 41.23 42 39.954 42H28.0734V36.8546H39.954C41.01 36.8546 41.6921 37.4701 41.6921 38.3072ZM32.9576 38.7503H37.9079V38.061L31.9016 38.0363V40.8429H37.9079V40.129H32.9576V38.7503Z" fill="black"/>
</svg>
