<svg width="128" height="30" viewBox="0 0 128 30" fill="none" xmlns="http://www.w3.org/2000/svg">
<path d="M19.38 18.572C19.42 18.572 19.454 18.586 19.482 18.614L19.722 18.872C19.546 19.06 19.354 19.23 19.146 19.382C18.942 19.53 18.716 19.658 18.468 19.766C18.224 19.87 17.954 19.95 17.658 20.006C17.366 20.066 17.044 20.096 16.692 20.096C16.104 20.096 15.564 19.994 15.072 19.79C14.584 19.582 14.164 19.29 13.812 18.914C13.46 18.534 13.186 18.076 12.99 17.54C12.798 17.004 12.702 16.408 12.702 15.752C12.702 15.108 12.802 14.52 13.002 13.988C13.202 13.456 13.482 13 13.842 12.62C14.202 12.236 14.634 11.94 15.138 11.732C15.642 11.52 16.198 11.414 16.806 11.414C17.386 11.414 17.9 11.504 18.348 11.684C18.796 11.864 19.204 12.118 19.572 12.446L19.386 12.716C19.354 12.764 19.304 12.788 19.236 12.788C19.188 12.788 19.11 12.744 19.002 12.656C18.894 12.568 18.744 12.472 18.552 12.368C18.36 12.26 18.12 12.162 17.832 12.074C17.548 11.986 17.206 11.942 16.806 11.942C16.294 11.942 15.824 12.03 15.396 12.206C14.972 12.382 14.606 12.634 14.298 12.962C13.994 13.29 13.756 13.69 13.584 14.162C13.412 14.634 13.326 15.164 13.326 15.752C13.326 16.352 13.412 16.888 13.584 17.36C13.76 17.832 14 18.232 14.304 18.56C14.608 18.884 14.966 19.134 15.378 19.31C15.794 19.482 16.242 19.568 16.722 19.568C17.026 19.568 17.296 19.548 17.532 19.508C17.772 19.468 17.992 19.408 18.192 19.328C18.392 19.248 18.578 19.15 18.75 19.034C18.922 18.918 19.092 18.782 19.26 18.626C19.28 18.61 19.3 18.598 19.32 18.59C19.34 18.578 19.36 18.572 19.38 18.572ZM25.7594 20H25.1834V14.486H22.7714C22.7314 15.274 22.6634 15.96 22.5674 16.544C22.4754 17.124 22.3654 17.622 22.2374 18.038C22.1094 18.45 21.9654 18.788 21.8054 19.052C21.6454 19.316 21.4774 19.524 21.3014 19.676C21.1294 19.828 20.9534 19.932 20.7734 19.988C20.5934 20.044 20.4154 20.072 20.2394 20.072C20.1434 20.072 20.0594 20.064 19.9874 20.048C19.9154 20.032 19.8794 20.008 19.8794 19.976V19.61H20.1434C20.2874 19.61 20.4334 19.582 20.5814 19.526C20.7334 19.466 20.8834 19.36 21.0314 19.208C21.1794 19.056 21.3214 18.848 21.4574 18.584C21.5934 18.32 21.7154 17.982 21.8234 17.57C21.9354 17.154 22.0314 16.656 22.1114 16.076C22.1954 15.496 22.2554 14.814 22.2914 14.03H25.7594V20ZM31.7134 16.412C31.7134 16.092 31.6674 15.806 31.5754 15.554C31.4874 15.298 31.3614 15.082 31.1974 14.906C31.0334 14.73 30.8374 14.596 30.6094 14.504C30.3854 14.408 30.1374 14.36 29.8654 14.36C29.5574 14.36 29.2814 14.408 29.0374 14.504C28.7934 14.6 28.5814 14.738 28.4014 14.918C28.2254 15.098 28.0834 15.314 27.9754 15.566C27.8674 15.818 27.7954 16.1 27.7594 16.412H31.7134ZM27.7294 16.778V16.892C27.7294 17.34 27.7814 17.734 27.8854 18.074C27.9894 18.414 28.1374 18.7 28.3294 18.932C28.5214 19.16 28.7534 19.332 29.0254 19.448C29.2974 19.564 29.6014 19.622 29.9374 19.622C30.2374 19.622 30.4974 19.59 30.7174 19.526C30.9374 19.458 31.1214 19.384 31.2694 19.304C31.4214 19.22 31.5414 19.146 31.6294 19.082C31.7174 19.014 31.7814 18.98 31.8214 18.98C31.8734 18.98 31.9134 19 31.9414 19.04L32.0974 19.232C32.0014 19.352 31.8734 19.464 31.7134 19.568C31.5574 19.672 31.3814 19.762 31.1854 19.838C30.9934 19.91 30.7854 19.968 30.5614 20.012C30.3414 20.056 30.1194 20.078 29.8954 20.078C29.4874 20.078 29.1154 20.008 28.7794 19.868C28.4434 19.724 28.1554 19.516 27.9154 19.244C27.6754 18.972 27.4894 18.64 27.3574 18.248C27.2294 17.852 27.1654 17.4 27.1654 16.892C27.1654 16.464 27.2254 16.07 27.3454 15.71C27.4694 15.346 27.6454 15.034 27.8734 14.774C28.1054 14.51 28.3874 14.304 28.7194 14.156C29.0554 14.008 29.4354 13.934 29.8594 13.934C30.1954 13.934 30.5074 13.992 30.7954 14.108C31.0834 14.224 31.3334 14.394 31.5454 14.618C31.7574 14.838 31.9234 15.11 32.0434 15.434C32.1674 15.758 32.2294 16.13 32.2294 16.55C32.2294 16.638 32.2174 16.698 32.1934 16.73C32.1694 16.762 32.1294 16.778 32.0734 16.778H27.7294ZM37.7792 19.574V14.486H35.3672C35.3232 15.282 35.2552 15.97 35.1632 16.55C35.0752 17.13 34.9692 17.622 34.8452 18.026C34.7252 18.43 34.5932 18.756 34.4492 19.004C34.3092 19.252 34.1672 19.442 34.0232 19.574H37.7792ZM39.4292 19.562V21.938C39.4292 22.066 39.3692 22.13 39.2492 22.13H38.9192V20H33.2012V21.962C33.2012 22.006 33.1872 22.044 33.1592 22.076C33.1352 22.112 33.0972 22.13 33.0452 22.13H32.6912V19.574H32.9252C33.0692 19.574 33.2112 19.544 33.3512 19.484C33.4952 19.424 33.6332 19.318 33.7652 19.166C33.9012 19.01 34.0292 18.8 34.1492 18.536C34.2692 18.268 34.3772 17.93 34.4732 17.522C34.5692 17.11 34.6532 16.618 34.7252 16.046C34.7972 15.474 34.8512 14.802 34.8872 14.03H38.3372V19.562H39.4292ZM45.0978 14.03L41.6658 21.92C41.6418 21.976 41.6098 22.022 41.5698 22.058C41.5338 22.094 41.4798 22.112 41.4078 22.112H40.9998L42.0498 19.778L39.5238 14.03H39.9978C40.0578 14.03 40.1058 14.046 40.1418 14.078C40.1778 14.106 40.2018 14.138 40.2138 14.174L42.2238 18.818C42.2478 18.878 42.2678 18.94 42.2838 19.004C42.3038 19.064 42.3218 19.126 42.3378 19.19C42.3578 19.126 42.3778 19.064 42.3978 19.004C42.4218 18.94 42.4458 18.878 42.4698 18.818L44.4558 14.174C44.4758 14.13 44.5038 14.096 44.5398 14.072C44.5758 14.044 44.6158 14.03 44.6598 14.03H45.0978ZM51.0113 19.628C51.3433 19.628 51.6333 19.568 51.8813 19.448C52.1293 19.324 52.3353 19.148 52.4993 18.92C52.6633 18.692 52.7853 18.418 52.8653 18.098C52.9493 17.774 52.9913 17.412 52.9913 17.012C52.9913 16.616 52.9493 16.256 52.8653 15.932C52.7853 15.608 52.6633 15.332 52.4993 15.104C52.3353 14.872 52.1293 14.694 51.8813 14.57C51.6333 14.446 51.3433 14.384 51.0113 14.384C50.6793 14.384 50.3893 14.446 50.1413 14.57C49.8933 14.694 49.6853 14.872 49.5173 15.104C49.3533 15.332 49.2293 15.608 49.1453 15.932C49.0653 16.256 49.0253 16.616 49.0253 17.012C49.0253 17.412 49.0653 17.774 49.1453 18.098C49.2293 18.418 49.3533 18.692 49.5173 18.92C49.6853 19.148 49.8933 19.324 50.1413 19.448C50.3893 19.568 50.6793 19.628 51.0113 19.628ZM48.4613 16.79C48.4773 16.354 48.5473 15.96 48.6713 15.608C48.7953 15.256 48.9653 14.956 49.1813 14.708C49.3973 14.46 49.6593 14.27 49.9673 14.138C50.2753 14.002 50.6233 13.934 51.0113 13.934C51.4153 13.934 51.7753 14.008 52.0913 14.156C52.4113 14.3 52.6813 14.506 52.9013 14.774C53.1213 15.042 53.2893 15.366 53.4053 15.746C53.5213 16.122 53.5793 16.544 53.5793 17.012C53.5793 17.48 53.5193 17.902 53.3993 18.278C53.2833 18.654 53.1153 18.976 52.8953 19.244C52.6753 19.512 52.4053 19.718 52.0853 19.862C51.7693 20.006 51.4113 20.078 51.0113 20.078C50.6193 20.078 50.2673 20.012 49.9553 19.88C49.6473 19.744 49.3853 19.552 49.1693 19.304C48.9533 19.056 48.7853 18.756 48.6653 18.404C48.5453 18.052 48.4773 17.656 48.4613 17.216H46.6733V20H46.0973V14.03H46.6733V16.79H48.4613ZM63.853 19.562V21.938C63.853 22.066 63.793 22.13 63.673 22.13H63.343V20H54.991V14.03H55.567V19.562H58.591V14.03H59.161V19.562H62.185V14.03H62.761V19.562H63.853ZM69.746 14.03V20H69.176V15.188C69.176 15.132 69.178 15.072 69.182 15.008C69.186 14.944 69.192 14.88 69.2 14.816C69.172 14.872 69.144 14.924 69.116 14.972C69.092 15.016 69.066 15.056 69.038 15.092C69.03 15.1 68.974 15.176 68.87 15.32C68.766 15.46 68.628 15.642 68.456 15.866C68.288 16.09 68.096 16.344 67.88 16.628C67.668 16.912 67.452 17.202 67.232 17.498C66.712 18.19 66.122 18.976 65.462 19.856C65.438 19.892 65.406 19.926 65.366 19.958C65.33 19.986 65.29 20 65.246 20H64.916V14.03H65.492V18.842C65.492 18.898 65.49 18.958 65.486 19.022C65.482 19.086 65.476 19.15 65.468 19.214C65.492 19.158 65.518 19.108 65.546 19.064C65.574 19.016 65.6 18.974 65.624 18.938C65.628 18.93 65.682 18.856 65.786 18.716C65.894 18.576 66.032 18.394 66.2 18.17C66.372 17.942 66.564 17.686 66.776 17.402C66.988 17.118 67.206 16.828 67.43 16.532C67.95 15.84 68.54 15.056 69.2 14.18C69.224 14.14 69.254 14.106 69.29 14.078C69.33 14.046 69.372 14.03 69.416 14.03H69.746ZM76.3429 14.03V20H75.7729V15.188C75.7729 15.132 75.7749 15.072 75.7789 15.008C75.7829 14.944 75.7889 14.88 75.7969 14.816C75.7689 14.872 75.7409 14.924 75.7129 14.972C75.6889 15.016 75.6629 15.056 75.6349 15.092C75.6269 15.1 75.5709 15.176 75.4669 15.32C75.3629 15.46 75.2249 15.642 75.0529 15.866C74.8849 16.09 74.6929 16.344 74.4769 16.628C74.2649 16.912 74.0489 17.202 73.8289 17.498C73.3089 18.19 72.7189 18.976 72.0589 19.856C72.0349 19.892 72.0029 19.926 71.9629 19.958C71.9269 19.986 71.8869 20 71.8429 20H71.5129V14.03H72.0889V18.842C72.0889 18.898 72.0869 18.958 72.0829 19.022C72.0789 19.086 72.0729 19.15 72.0649 19.214C72.0889 19.158 72.1149 19.108 72.1429 19.064C72.1709 19.016 72.1969 18.974 72.2209 18.938C72.2249 18.93 72.2789 18.856 72.3829 18.716C72.4909 18.576 72.6289 18.394 72.7969 18.17C72.9689 17.942 73.1609 17.686 73.3729 17.402C73.5849 17.118 73.8029 16.828 74.0269 16.532C74.5469 15.84 75.1369 15.056 75.7969 14.18C75.8209 14.14 75.8509 14.106 75.8869 14.078C75.9269 14.046 75.9689 14.03 76.0129 14.03H76.3429ZM73.9789 12.662C74.3389 12.662 74.5989 12.572 74.7589 12.392C74.9189 12.208 74.9989 11.914 74.9989 11.51H75.3229C75.3669 11.51 75.4009 11.53 75.4249 11.57C75.4529 11.606 75.4669 11.652 75.4669 11.708C75.4669 12.092 75.3429 12.4 75.0949 12.632C74.8469 12.864 74.4749 12.98 73.9789 12.98C73.4829 12.98 73.1089 12.864 72.8569 12.632C72.6089 12.4 72.4849 12.092 72.4849 11.708C72.4849 11.652 72.4989 11.606 72.5269 11.57C72.5549 11.53 72.5909 11.51 72.6349 11.51H72.9529C72.9529 11.914 73.0329 12.208 73.1929 12.392C73.3529 12.572 73.6149 12.662 73.9789 12.662Z" fill="#2B2929"/>
<path d="M93 1V29" stroke="black" stroke-width="0.5"/>
<rect x="0.25" y="0.25" width="127.5" height="29.5" stroke="black" stroke-width="0.5"/>
<path d="M105.5 23.5L116.5 15L105.5 7.5" stroke="#424242" stroke-width="0.5"/>
</svg>
