<svg width="128" height="30" viewBox="0 0 128 30" fill="none" xmlns="http://www.w3.org/2000/svg">
<g clip-path="url(#clip0_212_5504)">
<path d="M128 0H0V30H128V0Z" fill="#BDD002"/>
<path d="M19.38 18.5719C19.42 18.5719 19.454 18.5859 19.482 18.6139L19.722 18.8719C19.546 19.0599 19.354 19.2299 19.146 19.3819C18.942 19.5299 18.716 19.6579 18.468 19.7659C18.224 19.8699 17.954 19.9499 17.658 20.0059C17.366 20.0659 17.044 20.0959 16.692 20.0959C16.104 20.0959 15.564 19.9939 15.072 19.7899C14.584 19.5819 14.164 19.2899 13.812 18.9139C13.46 18.5339 13.186 18.0759 12.99 17.5399C12.798 17.0039 12.702 16.4079 12.702 15.7519C12.702 15.1079 12.802 14.5199 13.002 13.9879C13.202 13.4559 13.482 12.9999 13.842 12.6199C14.202 12.2359 14.634 11.9399 15.138 11.7319C15.642 11.5199 16.198 11.4139 16.806 11.4139C17.386 11.4139 17.9 11.5039 18.348 11.6839C18.796 11.8639 19.204 12.1179 19.572 12.4459L19.386 12.7159C19.354 12.7639 19.304 12.7879 19.236 12.7879C19.188 12.7879 19.11 12.7439 19.002 12.6559C18.894 12.5679 18.744 12.4719 18.552 12.3679C18.36 12.2599 18.12 12.1619 17.832 12.0739C17.548 11.9859 17.206 11.9419 16.806 11.9419C16.294 11.9419 15.824 12.0299 15.396 12.2059C14.972 12.3819 14.606 12.6339 14.298 12.9619C13.994 13.2899 13.756 13.6899 13.584 14.1619C13.412 14.6339 13.326 15.1639 13.326 15.7519C13.326 16.3519 13.412 16.8879 13.584 17.3599C13.76 17.8319 14 18.2319 14.304 18.5599C14.608 18.8839 14.966 19.1339 15.378 19.3099C15.794 19.4819 16.242 19.5679 16.722 19.5679C17.026 19.5679 17.296 19.5479 17.532 19.5079C17.772 19.4679 17.992 19.4079 18.192 19.3279C18.392 19.2479 18.578 19.1499 18.75 19.0339C18.922 18.9179 19.092 18.7819 19.26 18.6259C19.28 18.6099 19.3 18.5979 19.32 18.5899C19.34 18.5779 19.36 18.5719 19.38 18.5719ZM25.7594 19.9999H25.1834V14.4859H22.7714C22.7314 15.2739 22.6634 15.9599 22.5674 16.5439C22.4754 17.1239 22.3654 17.6219 22.2374 18.0379C22.1094 18.4499 21.9654 18.7879 21.8054 19.0519C21.6454 19.3159 21.4774 19.5239 21.3014 19.6759C21.1294 19.8279 20.9534 19.9319 20.7734 19.9879C20.5934 20.0439 20.4154 20.0719 20.2394 20.0719C20.1434 20.0719 20.0594 20.0639 19.9874 20.0479C19.9154 20.0319 19.8794 20.0079 19.8794 19.9759V19.6099H20.1434C20.2874 19.6099 20.4334 19.5819 20.5814 19.5259C20.7334 19.4659 20.8834 19.3599 21.0314 19.2079C21.1794 19.0559 21.3214 18.8479 21.4574 18.5839C21.5934 18.3199 21.7154 17.9819 21.8234 17.5699C21.9354 17.1539 22.0314 16.6559 22.1114 16.0759C22.1954 15.4959 22.2554 14.8139 22.2914 14.0299H25.7594V19.9999ZM31.7134 16.4119C31.7134 16.0919 31.6674 15.8059 31.5754 15.5539C31.4874 15.2979 31.3614 15.0819 31.1974 14.9059C31.0334 14.7299 30.8374 14.5959 30.6094 14.5039C30.3854 14.4079 30.1374 14.3599 29.8654 14.3599C29.5574 14.3599 29.2814 14.4079 29.0374 14.5039C28.7934 14.5999 28.5814 14.7379 28.4014 14.9179C28.2254 15.0979 28.0834 15.3139 27.9754 15.5659C27.8674 15.8179 27.7954 16.0999 27.7594 16.4119H31.7134ZM27.7294 16.7779V16.8919C27.7294 17.3399 27.7814 17.7339 27.8854 18.0739C27.9894 18.4139 28.1374 18.6999 28.3294 18.9319C28.5214 19.1599 28.7534 19.3319 29.0254 19.4479C29.2974 19.5639 29.6014 19.6219 29.9374 19.6219C30.2374 19.6219 30.4974 19.5899 30.7174 19.5259C30.9374 19.4579 31.1214 19.3839 31.2694 19.3039C31.4214 19.2199 31.5414 19.1459 31.6294 19.0819C31.7174 19.0139 31.7814 18.9799 31.8214 18.9799C31.8734 18.9799 31.9134 18.9999 31.9414 19.0399L32.0974 19.2319C32.0014 19.3519 31.8734 19.4639 31.7134 19.5679C31.5574 19.6719 31.3814 19.7619 31.1854 19.8379C30.9934 19.9099 30.7854 19.9679 30.5614 20.0119C30.3414 20.0559 30.1194 20.0779 29.8954 20.0779C29.4874 20.0779 29.1154 20.0079 28.7794 19.8679C28.4434 19.7239 28.1554 19.5159 27.9154 19.2439C27.6754 18.9719 27.4894 18.6399 27.3574 18.2479C27.2294 17.8519 27.1654 17.3999 27.1654 16.8919C27.1654 16.4639 27.2254 16.0699 27.3454 15.7099C27.4694 15.3459 27.6454 15.0339 27.8734 14.7739C28.1054 14.5099 28.3874 14.3039 28.7194 14.1559C29.0554 14.0079 29.4354 13.9339 29.8594 13.9339C30.1954 13.9339 30.5074 13.9919 30.7954 14.1079C31.0834 14.2239 31.3334 14.3939 31.5454 14.6179C31.7574 14.8379 31.9234 15.1099 32.0434 15.4339C32.1674 15.7579 32.2294 16.1299 32.2294 16.5499C32.2294 16.6379 32.2174 16.6979 32.1934 16.7299C32.1694 16.7619 32.1294 16.7779 32.0734 16.7779H27.7294ZM37.7792 19.5739V14.4859H35.3672C35.3232 15.2819 35.2552 15.9699 35.1632 16.5499C35.0752 17.1299 34.9692 17.6219 34.8452 18.0259C34.7252 18.4299 34.5932 18.7559 34.4492 19.0039C34.3092 19.2519 34.1672 19.4419 34.0232 19.5739H37.7792ZM39.4292 19.5619V21.9379C39.4292 22.0659 39.3692 22.1299 39.2492 22.1299H38.9192V19.9999H33.2012V21.9619C33.2012 22.0059 33.1872 22.0439 33.1592 22.0759C33.1352 22.1119 33.0972 22.1299 33.0452 22.1299H32.6912V19.5739H32.9252C33.0692 19.5739 33.2112 19.5439 33.3512 19.4839C33.4952 19.4239 33.6332 19.3179 33.7652 19.1659C33.9012 19.0099 34.0292 18.7999 34.1492 18.5359C34.2692 18.2679 34.3772 17.9299 34.4732 17.5219C34.5692 17.1099 34.6532 16.6179 34.7252 16.0459C34.7972 15.4739 34.8512 14.8019 34.8872 14.0299H38.3372V19.5619H39.4292ZM45.0978 14.0299L41.6658 21.9199C41.6418 21.9759 41.6098 22.0219 41.5698 22.0579C41.5338 22.0939 41.4798 22.1119 41.4078 22.1119H40.9998L42.0498 19.7779L39.5238 14.0299H39.9978C40.0578 14.0299 40.1058 14.0459 40.1418 14.0779C40.1778 14.1059 40.2018 14.1379 40.2138 14.1739L42.2238 18.8179C42.2478 18.8779 42.2678 18.9399 42.2838 19.0039C42.3038 19.0639 42.3218 19.1259 42.3378 19.1899C42.3578 19.1259 42.3778 19.0639 42.3978 19.0039C42.4218 18.9399 42.4458 18.8779 42.4698 18.8179L44.4558 14.1739C44.4758 14.1299 44.5038 14.0959 44.5398 14.0719C44.5758 14.0439 44.6158 14.0299 44.6598 14.0299H45.0978ZM51.0113 19.6279C51.3433 19.6279 51.6333 19.5679 51.8813 19.4479C52.1293 19.3239 52.3353 19.1479 52.4993 18.9199C52.6633 18.6919 52.7853 18.4179 52.8653 18.0979C52.9493 17.7739 52.9913 17.4119 52.9913 17.0119C52.9913 16.6159 52.9493 16.2559 52.8653 15.9319C52.7853 15.6079 52.6633 15.3319 52.4993 15.1039C52.3353 14.8719 52.1293 14.6939 51.8813 14.5699C51.6333 14.4459 51.3433 14.3839 51.0113 14.3839C50.6793 14.3839 50.3893 14.4459 50.1413 14.5699C49.8933 14.6939 49.6853 14.8719 49.5173 15.1039C49.3533 15.3319 49.2293 15.6079 49.1453 15.9319C49.0653 16.2559 49.0253 16.6159 49.0253 17.0119C49.0253 17.4119 49.0653 17.7739 49.1453 18.0979C49.2293 18.4179 49.3533 18.6919 49.5173 18.9199C49.6853 19.1479 49.8933 19.3239 50.1413 19.4479C50.3893 19.5679 50.6793 19.6279 51.0113 19.6279ZM48.4613 16.7899C48.4773 16.3539 48.5473 15.9599 48.6713 15.6079C48.7953 15.2559 48.9653 14.9559 49.1813 14.7079C49.3973 14.4599 49.6593 14.2699 49.9673 14.1379C50.2753 14.0019 50.6233 13.9339 51.0113 13.9339C51.4153 13.9339 51.7753 14.0079 52.0913 14.1559C52.4113 14.2999 52.6813 14.5059 52.9013 14.7739C53.1213 15.0419 53.2893 15.3659 53.4053 15.7459C53.5213 16.1219 53.5793 16.5439 53.5793 17.0119C53.5793 17.4799 53.5193 17.9019 53.3993 18.2779C53.2833 18.6539 53.1153 18.9759 52.8953 19.2439C52.6753 19.5119 52.4053 19.7179 52.0853 19.8619C51.7693 20.0059 51.4113 20.0779 51.0113 20.0779C50.6193 20.0779 50.2673 20.0119 49.9553 19.8799C49.6473 19.7439 49.3853 19.5519 49.1693 19.3039C48.9533 19.0559 48.7853 18.7559 48.6653 18.4039C48.5453 18.0519 48.4773 17.6559 48.4613 17.2159H46.6733V19.9999H46.0973V14.0299H46.6733V16.7899H48.4613ZM63.853 19.5619V21.9379C63.853 22.0659 63.793 22.1299 63.673 22.1299H63.343V19.9999H54.991V14.0299H55.567V19.5619H58.591V14.0299H59.161V19.5619H62.185V14.0299H62.761V19.5619H63.853ZM69.746 14.0299V19.9999H69.176V15.1879C69.176 15.1319 69.178 15.0719 69.182 15.0079C69.186 14.9439 69.192 14.8799 69.2 14.8159C69.172 14.8719 69.144 14.9239 69.116 14.9719C69.092 15.0159 69.066 15.0559 69.038 15.0919C69.03 15.0999 68.974 15.1759 68.87 15.3199C68.766 15.4599 68.628 15.6419 68.456 15.8659C68.288 16.0899 68.096 16.3439 67.88 16.6279C67.668 16.9119 67.452 17.2019 67.232 17.4979C66.712 18.1899 66.122 18.9759 65.462 19.8559C65.438 19.8919 65.406 19.9259 65.366 19.9579C65.33 19.9859 65.29 19.9999 65.246 19.9999H64.916V14.0299H65.492V18.8419C65.492 18.8979 65.49 18.9579 65.486 19.0219C65.482 19.0859 65.476 19.1499 65.468 19.2139C65.492 19.1579 65.518 19.1079 65.546 19.0639C65.574 19.0159 65.6 18.9739 65.624 18.9379C65.628 18.9299 65.682 18.8559 65.786 18.7159C65.894 18.5759 66.032 18.3939 66.2 18.1699C66.372 17.9419 66.564 17.6859 66.776 17.4019C66.988 17.1179 67.206 16.8279 67.43 16.5319C67.95 15.8399 68.54 15.0559 69.2 14.1799C69.224 14.1399 69.254 14.1059 69.29 14.0779C69.33 14.0459 69.372 14.0299 69.416 14.0299H69.746ZM76.3429 14.0299V19.9999H75.7729V15.1879C75.7729 15.1319 75.7749 15.0719 75.7789 15.0079C75.7829 14.9439 75.7889 14.8799 75.7969 14.8159C75.7689 14.8719 75.7409 14.9239 75.7129 14.9719C75.6889 15.0159 75.6629 15.0559 75.6349 15.0919C75.6269 15.0999 75.5709 15.1759 75.4669 15.3199C75.3629 15.4599 75.2249 15.6419 75.0529 15.8659C74.8849 16.0899 74.6929 16.3439 74.4769 16.6279C74.2649 16.9119 74.0489 17.2019 73.8289 17.4979C73.3089 18.1899 72.7189 18.9759 72.0589 19.8559C72.0349 19.8919 72.0029 19.9259 71.9629 19.9579C71.9269 19.9859 71.8869 19.9999 71.8429 19.9999H71.5129V14.0299H72.0889V18.8419C72.0889 18.8979 72.0869 18.9579 72.0829 19.0219C72.0789 19.0859 72.0729 19.1499 72.0649 19.2139C72.0889 19.1579 72.1149 19.1079 72.1429 19.0639C72.1709 19.0159 72.1969 18.9739 72.2209 18.9379C72.2249 18.9299 72.2789 18.8559 72.3829 18.7159C72.4909 18.5759 72.6289 18.3939 72.7969 18.1699C72.9689 17.9419 73.1609 17.6859 73.3729 17.4019C73.5849 17.1179 73.8029 16.8279 74.0269 16.5319C74.5469 15.8399 75.1369 15.0559 75.7969 14.1799C75.8209 14.1399 75.8509 14.1059 75.8869 14.0779C75.9269 14.0459 75.9689 14.0299 76.0129 14.0299H76.3429ZM73.9789 12.6619C74.3389 12.6619 74.5989 12.5719 74.7589 12.3919C74.9189 12.2079 74.9989 11.9139 74.9989 11.5099H75.3229C75.3669 11.5099 75.4009 11.5299 75.4249 11.5699C75.4529 11.6059 75.4669 11.6519 75.4669 11.7079C75.4669 12.0919 75.3429 12.3999 75.0949 12.6319C74.8469 12.8639 74.4749 12.9799 73.9789 12.9799C73.4829 12.9799 73.1089 12.8639 72.8569 12.6319C72.6089 12.3999 72.4849 12.0919 72.4849 11.7079C72.4849 11.6519 72.4989 11.6059 72.5269 11.5699C72.5549 11.5299 72.5909 11.5099 72.6349 11.5099H72.9529C72.9529 11.9139 73.0329 12.2079 73.1929 12.3919C73.3529 12.5719 73.6149 12.6619 73.9789 12.6619Z" fill="#2B2929"/>
<path d="M93 1V29" stroke="black" stroke-width="0.5"/>
<path d="M105.5 23.5L116.5 15L105.5 7.5" stroke="#424242" stroke-width="0.5"/>
</g>
<defs>
<clipPath id="clip0_212_5504">
<rect width="128" height="30" fill="white"/>
</clipPath>
</defs>
</svg>
