<svg width="128" height="30" viewBox="0 0 128 30" fill="none" xmlns="http://www.w3.org/2000/svg">
<path d="M19.422 20H18.804V12.002H13.872V20H13.254V11.51H19.422V20ZM21.9498 18.698C22.0658 18.87 22.1858 19.016 22.3098 19.136C22.4378 19.252 22.5718 19.348 22.7118 19.424C22.8518 19.496 22.9998 19.548 23.1558 19.58C23.3158 19.612 23.4838 19.628 23.6598 19.628C24.0118 19.628 24.3198 19.564 24.5838 19.436C24.8478 19.308 25.0678 19.128 25.2438 18.896C25.4238 18.66 25.5578 18.38 25.6458 18.056C25.7378 17.728 25.7838 17.368 25.7838 16.976C25.7838 16.088 25.6198 15.436 25.2918 15.02C24.9638 14.6 24.4938 14.39 23.8818 14.39C23.4858 14.39 23.1278 14.492 22.8078 14.696C22.4878 14.9 22.2018 15.184 21.9498 15.548V18.698ZM21.9258 15.104C22.1898 14.744 22.4978 14.458 22.8498 14.246C23.2058 14.034 23.6038 13.928 24.0438 13.928C24.7758 13.928 25.3458 14.182 25.7538 14.69C26.1658 15.198 26.3718 15.96 26.3718 16.976C26.3718 17.412 26.3138 17.82 26.1978 18.2C26.0858 18.576 25.9178 18.904 25.6938 19.184C25.4738 19.46 25.2018 19.678 24.8778 19.838C24.5578 19.998 24.1878 20.078 23.7678 20.078C23.3638 20.078 23.0138 20.004 22.7178 19.856C22.4218 19.708 22.1658 19.49 21.9498 19.202V22.112H21.3738V14.03H21.6918C21.7918 14.03 21.8498 14.08 21.8658 14.18L21.9258 15.104ZM31.9712 16.412C31.9712 16.092 31.9252 15.806 31.8332 15.554C31.7452 15.298 31.6192 15.082 31.4552 14.906C31.2912 14.73 31.0952 14.596 30.8672 14.504C30.6432 14.408 30.3952 14.36 30.1232 14.36C29.8152 14.36 29.5392 14.408 29.2952 14.504C29.0512 14.6 28.8392 14.738 28.6592 14.918C28.4832 15.098 28.3412 15.314 28.2332 15.566C28.1252 15.818 28.0532 16.1 28.0172 16.412H31.9712ZM27.9872 16.778V16.892C27.9872 17.34 28.0392 17.734 28.1432 18.074C28.2472 18.414 28.3952 18.7 28.5872 18.932C28.7792 19.16 29.0112 19.332 29.2832 19.448C29.5552 19.564 29.8592 19.622 30.1952 19.622C30.4952 19.622 30.7552 19.59 30.9752 19.526C31.1952 19.458 31.3792 19.384 31.5272 19.304C31.6792 19.22 31.7992 19.146 31.8872 19.082C31.9752 19.014 32.0392 18.98 32.0792 18.98C32.1312 18.98 32.1712 19 32.1992 19.04L32.3552 19.232C32.2592 19.352 32.1312 19.464 31.9712 19.568C31.8152 19.672 31.6392 19.762 31.4432 19.838C31.2512 19.91 31.0432 19.968 30.8192 20.012C30.5992 20.056 30.3772 20.078 30.1532 20.078C29.7452 20.078 29.3732 20.008 29.0372 19.868C28.7012 19.724 28.4132 19.516 28.1732 19.244C27.9332 18.972 27.7472 18.64 27.6152 18.248C27.4872 17.852 27.4232 17.4 27.4232 16.892C27.4232 16.464 27.4832 16.07 27.6032 15.71C27.7272 15.346 27.9032 15.034 28.1312 14.774C28.3632 14.51 28.6452 14.304 28.9772 14.156C29.3132 14.008 29.6932 13.934 30.1172 13.934C30.4532 13.934 30.7652 13.992 31.0532 14.108C31.3412 14.224 31.5912 14.394 31.8032 14.618C32.0152 14.838 32.1812 15.11 32.3012 15.434C32.4252 15.758 32.4872 16.13 32.4872 16.55C32.4872 16.638 32.4752 16.698 32.4512 16.73C32.4272 16.762 32.3872 16.778 32.3312 16.778H27.9872ZM38.037 19.574V14.486H35.625C35.581 15.282 35.513 15.97 35.421 16.55C35.333 17.13 35.227 17.622 35.103 18.026C34.983 18.43 34.851 18.756 34.707 19.004C34.567 19.252 34.425 19.442 34.281 19.574H38.037ZM39.687 19.562V21.938C39.687 22.066 39.627 22.13 39.507 22.13H39.177V20H33.459V21.962C33.459 22.006 33.445 22.044 33.417 22.076C33.393 22.112 33.355 22.13 33.303 22.13H32.949V19.574H33.183C33.327 19.574 33.469 19.544 33.609 19.484C33.753 19.424 33.891 19.318 34.023 19.166C34.159 19.01 34.287 18.8 34.407 18.536C34.527 18.268 34.635 17.93 34.731 17.522C34.827 17.11 34.911 16.618 34.983 16.046C35.055 15.474 35.109 14.802 35.145 14.03H38.595V19.562H39.687ZM42.8546 19.574C43.1266 19.574 43.3626 19.542 43.5626 19.478C43.7626 19.41 43.9286 19.318 44.0606 19.202C44.1926 19.082 44.2906 18.942 44.3546 18.782C44.4186 18.618 44.4506 18.44 44.4506 18.248C44.4506 18.072 44.4226 17.906 44.3666 17.75C44.3146 17.594 44.2246 17.458 44.0966 17.342C43.9726 17.226 43.8066 17.134 43.5986 17.066C43.3906 16.998 43.1346 16.964 42.8306 16.964H41.2946V19.574H42.8546ZM42.8306 16.538C43.2386 16.538 43.5786 16.586 43.8506 16.682C44.1266 16.778 44.3466 16.906 44.5106 17.066C44.6746 17.222 44.7906 17.402 44.8586 17.606C44.9306 17.81 44.9666 18.02 44.9666 18.236C44.9666 18.488 44.9206 18.722 44.8286 18.938C44.7406 19.154 44.6066 19.342 44.4266 19.502C44.2506 19.658 44.0306 19.78 43.7666 19.868C43.5066 19.956 43.2046 20 42.8606 20H40.7426V14.03H41.2946V16.538H42.8306ZM47.1386 14.03V20H46.5626V14.03H47.1386ZM53.1878 19.574V14.486H50.7758C50.7318 15.282 50.6638 15.97 50.5718 16.55C50.4838 17.13 50.3778 17.622 50.2538 18.026C50.1338 18.43 50.0018 18.756 49.8578 19.004C49.7178 19.252 49.5758 19.442 49.4318 19.574H53.1878ZM54.8378 19.562V21.938C54.8378 22.066 54.7778 22.13 54.6578 22.13H54.3278V20H48.6098V21.962C48.6098 22.006 48.5958 22.044 48.5678 22.076C48.5438 22.112 48.5058 22.13 48.4538 22.13H48.0998V19.574H48.3338C48.4778 19.574 48.6198 19.544 48.7598 19.484C48.9038 19.424 49.0418 19.318 49.1738 19.166C49.3098 19.01 49.4378 18.8 49.5578 18.536C49.6778 18.268 49.7858 17.93 49.8818 17.522C49.9778 17.11 50.0618 16.618 50.1338 16.046C50.2058 15.474 50.2598 14.802 50.2958 14.03H53.7458V19.562H54.8378ZM60.5064 14.03L57.0744 21.92C57.0504 21.976 57.0184 22.022 56.9784 22.058C56.9424 22.094 56.8884 22.112 56.8164 22.112H56.4084L57.4584 19.778L54.9324 14.03H55.4064C55.4664 14.03 55.5144 14.046 55.5504 14.078C55.5864 14.106 55.6104 14.138 55.6224 14.174L57.6324 18.818C57.6564 18.878 57.6764 18.94 57.6924 19.004C57.7124 19.064 57.7304 19.126 57.7464 19.19C57.7664 19.126 57.7864 19.064 57.8064 19.004C57.8304 18.94 57.8544 18.878 57.8784 18.818L59.8644 14.174C59.8844 14.13 59.9124 14.096 59.9484 14.072C59.9844 14.044 60.0244 14.03 60.0684 14.03H60.5064ZM70.3679 19.562V21.938C70.3679 22.066 70.3079 22.13 70.1879 22.13H69.8579V20H61.5059V14.03H62.0819V19.562H65.1059V14.03H65.6759V19.562H68.6999V14.03H69.2759V19.562H70.3679ZM76.2609 14.03V20H75.6909V15.188C75.6909 15.132 75.6929 15.072 75.6969 15.008C75.7009 14.944 75.7069 14.88 75.7149 14.816C75.6869 14.872 75.6589 14.924 75.6309 14.972C75.6069 15.016 75.5809 15.056 75.5529 15.092C75.5449 15.1 75.4889 15.176 75.3849 15.32C75.2809 15.46 75.1429 15.642 74.9709 15.866C74.8029 16.09 74.6109 16.344 74.3949 16.628C74.1829 16.912 73.9669 17.202 73.7469 17.498C73.2269 18.19 72.6369 18.976 71.9769 19.856C71.9529 19.892 71.9209 19.926 71.8809 19.958C71.8449 19.986 71.8049 20 71.7609 20H71.4309V14.03H72.0069V18.842C72.0069 18.898 72.0049 18.958 72.0009 19.022C71.9969 19.086 71.9909 19.15 71.9829 19.214C72.0069 19.158 72.0329 19.108 72.0609 19.064C72.0889 19.016 72.1149 18.974 72.1389 18.938C72.1429 18.93 72.1969 18.856 72.3009 18.716C72.4089 18.576 72.5469 18.394 72.7149 18.17C72.8869 17.942 73.0789 17.686 73.2909 17.402C73.5029 17.118 73.7209 16.828 73.9449 16.532C74.4649 15.84 75.0549 15.056 75.7149 14.18C75.7389 14.14 75.7689 14.106 75.8049 14.078C75.8449 14.046 75.8869 14.03 75.9309 14.03H76.2609ZM82.8577 14.03V20H82.2877V15.188C82.2877 15.132 82.2897 15.072 82.2937 15.008C82.2977 14.944 82.3037 14.88 82.3117 14.816C82.2837 14.872 82.2557 14.924 82.2277 14.972C82.2037 15.016 82.1777 15.056 82.1497 15.092C82.1417 15.1 82.0857 15.176 81.9817 15.32C81.8777 15.46 81.7397 15.642 81.5677 15.866C81.3997 16.09 81.2077 16.344 80.9917 16.628C80.7797 16.912 80.5637 17.202 80.3437 17.498C79.8237 18.19 79.2337 18.976 78.5737 19.856C78.5497 19.892 78.5177 19.926 78.4777 19.958C78.4417 19.986 78.4017 20 78.3577 20H78.0277V14.03H78.6037V18.842C78.6037 18.898 78.6017 18.958 78.5977 19.022C78.5937 19.086 78.5877 19.15 78.5797 19.214C78.6037 19.158 78.6297 19.108 78.6577 19.064C78.6857 19.016 78.7117 18.974 78.7357 18.938C78.7397 18.93 78.7937 18.856 78.8977 18.716C79.0057 18.576 79.1437 18.394 79.3117 18.17C79.4837 17.942 79.6757 17.686 79.8877 17.402C80.0997 17.118 80.3177 16.828 80.5417 16.532C81.0617 15.84 81.6517 15.056 82.3117 14.18C82.3357 14.14 82.3657 14.106 82.4017 14.078C82.4417 14.046 82.4837 14.03 82.5277 14.03H82.8577ZM80.4937 12.662C80.8537 12.662 81.1137 12.572 81.2737 12.392C81.4337 12.208 81.5137 11.914 81.5137 11.51H81.8377C81.8817 11.51 81.9157 11.53 81.9397 11.57C81.9677 11.606 81.9817 11.652 81.9817 11.708C81.9817 12.092 81.8577 12.4 81.6097 12.632C81.3617 12.864 80.9897 12.98 80.4937 12.98C79.9977 12.98 79.6237 12.864 79.3717 12.632C79.1237 12.4 78.9997 12.092 78.9997 11.708C78.9997 11.652 79.0137 11.606 79.0417 11.57C79.0697 11.53 79.1057 11.51 79.1497 11.51H79.4677C79.4677 11.914 79.5477 12.208 79.7077 12.392C79.8677 12.572 80.1297 12.662 80.4937 12.662Z" fill="#2B2929"/>
<path d="M93 1V29" stroke="black" stroke-width="0.5"/>
<rect x="0.25" y="0.25" width="127.5" height="29.5" stroke="black" stroke-width="0.5"/>
<path d="M116.5 23.5L105.5 15L116.5 7.5" stroke="#424242" stroke-width="0.5"/>
</svg>
