<svg width="40" height="40" viewBox="0 0 40 40" fill="none" xmlns="http://www.w3.org/2000/svg">
<circle cx="20" cy="20" r="20" fill="#3E3D3D"/>
<path fill-rule="evenodd" clip-rule="evenodd" d="M15.3044 14.2005C14.5878 14.5381 14.0472 14.8898 14.0472 14.8898L19.956 5L24.4945 12.3576C24.4945 12.3576 24.2431 12.2028 23.4385 12.1184C22.307 12.0059 20.7355 12.2872 19.5034 12.5967C18.2714 12.9062 16.4987 13.6377 15.3044 14.2005ZM25.0351 13.3001L26.9712 16.578C26.9712 16.578 25.4374 16.2825 24.1048 16.3951C22.7722 16.5076 19.076 16.9578 19.076 16.9578C19.076 16.9578 22.1813 15.1993 23.4133 14.4959C24.6328 13.7925 25.0351 13.3001 25.0351 13.3001ZM28.3038 18.8148L32 25.0469L17.2781 25.0891C17.2781 25.0891 19.4782 24.0481 21.6406 23.1477C23.803 22.2474 24.9345 21.7268 26.6066 20.6858C28.2661 19.6307 28.3038 18.8148 28.3038 18.8148ZM8 25.1313H14.5752C14.5752 25.1313 19.3274 23.0914 22.0807 21.558C24.4945 20.2216 26.1289 18.9273 25.7266 18.0129C25.4248 17.3376 23.9414 17.3376 22.1561 17.3376H22.1561C21.4084 17.3376 20.6084 17.3727 19.8974 17.4039C19.2575 17.4319 18.6895 17.4568 18.2965 17.4502C17.3047 17.4258 17.4562 17.3168 17.7762 17.0866C17.8253 17.0513 17.8784 17.0131 17.9319 16.9719C18.1372 16.8121 19.6606 15.8439 20.7925 15.1245L20.793 15.1242C21.2551 14.8305 21.6519 14.5783 21.867 14.4396C22.9104 13.7503 22.4956 13.4267 22.0178 13.5815C21.2761 13.8347 18.8622 15.0305 16.3604 16.7186C13.8586 18.3927 12.0231 20.1512 10.6276 21.6002C9.23206 23.0352 8 25.1313 8 25.1313ZM8.3646 26.102V26.7351H12.9534V27.129H10.1247V27.9168H12.9534V28.3247H8.32689V29H14.1352C14.8769 29 15.1284 28.6764 15.1284 28.2966C15.1284 27.7339 14.6255 27.551 14.6255 27.551C14.6255 27.551 15.1284 27.3681 15.1284 26.8898C15.1284 26.4115 14.7386 26.0598 14.1352 26.0598C13.5443 26.0598 8.3646 26.102 8.3646 26.102ZM22.3824 26.0879H16.7502C16.1719 26.0879 15.6941 26.6225 15.6941 27.2696V27.8042C15.6941 28.4514 16.1719 28.9859 16.7502 28.9859H22.3824C22.9608 28.9859 23.4385 28.4514 23.4385 27.8042V27.2696C23.4385 26.6225 22.9608 26.0879 22.3824 26.0879ZM21.2258 28.2966H17.9068V26.7632H21.2258V28.2966ZM31.824 26.8898C31.824 27.3822 31.3211 27.551 31.3211 27.551C31.3211 27.551 31.824 27.7339 31.824 28.2966C31.824 28.6764 31.56 29 30.8308 29H24.0419V26.0598H30.8308C31.4343 26.0598 31.824 26.4115 31.824 26.8898ZM26.8329 27.143H29.6616V26.7491L26.2295 26.7351V28.3388H29.6616V27.9308H26.8329V27.143Z" fill="white"/>
</svg>
