<svg width="40" height="40" viewBox="0 0 40 40" fill="none" xmlns="http://www.w3.org/2000/svg">
<circle cx="20" cy="20" r="20" fill="#C2D31A"/>
<path d="M14.7471 15.9682C13.4276 13.9079 12.1081 11.8475 10.7886 9.78722M30.5466 28.9014C28.4892 27.7414 26.4318 26.5814 24.3744 25.4214M13.6273 8.71377C13.6273 8.71377 14.2957 8.94751 16.5875 13.3105C16.5875 13.3105 17.1778 14.0031 15.8062 14.9294L13.879 16.5482C13.879 16.5482 13.4363 17.1628 13.9051 17.7774C13.9051 17.7774 19.0182 23.9844 22.2823 26.0793C22.2823 26.0793 22.7771 26.5381 23.3413 26.1745L25.3206 23.9844L25.8588 23.439C25.8588 23.439 26.2061 23.1533 26.8138 23.5082L30.9373 25.9321C30.9373 25.9321 31.5362 26.2784 31.5102 27.1441C31.5102 27.1441 31.5536 27.6116 31.3105 28.0271L29.991 29.6979L28.3416 31.6976C28.3416 31.6976 27.6992 32.3122 27.135 32.4421C27.135 32.4421 25.9804 32.7104 25.3293 32.4421L23.4368 31.7322L21.6485 30.9877L20.7023 30.5203C20.7023 30.5203 19.9644 30.122 19.8082 29.9922L18.4973 29.1784L17.091 28.1483L15.1812 26.5987C15.1812 26.5987 11.9258 23.5342 10.5368 21.0843C10.5368 21.0843 8.50544 18.167 7.62866 14.9034C7.62866 14.9034 7.15988 13.3452 7.77624 12.4275L8.19293 11.8129L12.1168 8.58392C12.1341 8.56661 12.9241 8.25496 13.6273 8.71377Z" stroke="white" stroke-width="0.75" stroke-miterlimit="10"/>
<path d="M20.3378 15.6392C21.3795 15.7258 22.4125 15.8729 23.2112 16.6001C23.9665 17.284 24.3397 18.2709 24.2703 19.2837C24.2443 19.6992 24.8953 19.6992 24.9214 19.2837C24.9908 18.1151 24.5394 16.9377 23.6713 16.1413C23.2633 15.7691 22.7858 15.4834 22.265 15.3016C21.6486 15.0852 20.9802 15.0332 20.3291 14.9813C19.9211 14.9553 19.9211 15.6046 20.3378 15.6392Z" fill="white"/>
<path d="M20.9714 12.4968C21.9089 12.5834 22.8638 12.6699 23.758 12.9989C24.5132 13.2759 25.1903 13.752 25.7459 14.332C26.97 15.6132 27.5255 17.3879 27.4214 19.1366C27.3953 19.5521 28.0464 19.5521 28.0724 19.1366C28.1853 17.2234 27.5429 15.267 26.206 13.8732C25.5983 13.2413 24.8691 12.7478 24.0531 12.4189C23.0722 12.0293 22.0131 11.9428 20.98 11.8475C20.5547 11.8042 20.5547 12.4535 20.9714 12.4968Z" fill="white"/>
<path d="M20.9715 9.20721C22.3865 9.3284 23.8188 9.4496 25.1818 9.89109C26.3884 10.2893 27.4909 10.9559 28.4024 11.8302C30.3817 13.7174 31.3453 16.4183 31.1804 19.1279C31.1543 19.5434 31.8054 19.5434 31.8314 19.1279C32.0051 16.2625 30.9633 13.3625 28.8625 11.3714C27.9076 10.4711 26.7704 9.76124 25.529 9.3284C24.0706 8.81765 22.4993 8.6878 20.9715 8.55795C20.5548 8.52332 20.5548 9.17258 20.9715 9.20721Z" fill="white"/>
</svg>
